<svg xmlns="http://www.w3.org/2000/svg" viewBox="0 0 25.91 25.91"><defs><style>.cls-1,.cls-2{fill:#3c3e7f;}.cls-2{fill-rule:evenodd;}</style></defs><title>Ресурс 3</title><g id="Слой_2" data-name="Слой 2"><g id="Слой_1-2" data-name="Слой 1"><circle class="cls-1" cx="13.01" cy="12.58" r="2.51"/><path class="cls-2" d="M15.87,9a.72.72,0,1,0,.72.72A.72.72,0,0,0,15.87,9Z"/><path class="cls-2" d="M13,0a13,13,0,1,0,13,13A13,13,0,0,0,13,0ZM18,15.08a2.67,2.67,0,0,1-2.51,2.51h-5A2.67,2.67,0,0,1,8,15.08v-5a2.67,2.67,0,0,1,2.51-2.5h5A2.66,2.66,0,0,1,18,10.07Z"/></g></g></svg>