<?xml version="1.0" encoding="utf-8"?>
<!-- Generator: Adobe Illustrator 21.1.0, SVG Export Plug-In . SVG Version: 6.00 Build 0)  -->
<svg version="1.1" id="Слой_1" xmlns="http://www.w3.org/2000/svg" xmlns:xlink="http://www.w3.org/1999/xlink" x="0px" y="0px"
	 viewBox="0 0 595.3 841.9" style="enable-background:new 0 0 595.3 841.9;" xml:space="preserve">
<style type="text/css">
	.st0{fill:#F5C017;}
	.st1{fill:none;}
	.st2{fill:#F4BF18;}
	.st3{fill:#1A191D;}
</style>
<g>
	<path class="st0" d="M342.4,214.4c4.7-1.5,5.5-1.8,8.6-1.8c0.8,0,1.4,0.1,2,0.2c0.5,0.2,1,0.4,1.3,0.7l0.6-0.6l-0.8,0.3l12.7,31
		l0.8-0.3l0.6-0.6l-0.6,0.6l0.8-0.3l-12.7-31l-0.2-0.3c-0.6-0.6-1.3-0.9-2-1.2c-0.8-0.2-1.6-0.3-2.5-0.3c-3.6,0-4.5,0.6-9.3,2.1"/>
	<path class="st0" d="M329.7,244.9L329.7,244.9c0.4,1.1,1.3,2,2.8,3.1c1.4,1,3.2,1.4,5.2,1.4c4,0,8.9-1.5,13.6-2.9
		c4.7-1.5,9.3-2.9,12.4-2.9c0.8,0,1.4,0.1,2,0.2c0.5,0.2,1,0.4,1.3,0.7c0.3,0.3,0.8,0.3,1.1,0.1c0.4-0.2,0.5-0.7,0.3-1.1l-0.8,0.3
		l0.6-0.6c-0.6-0.6-1.3-0.9-2-1.2c-0.8-0.2-1.6-0.3-2.5-0.3c-3.6,0-8.2,1.5-13,2.9c-4.7,1.4-9.5,2.9-13.1,2.9
		c-1.8,0-3.2-0.3-4.2-1.1c-1.3-0.9-1.9-1.7-2.2-2.3l0,0l-5.5-12.4"/>
	<path class="st0" d="M317.4,212.8"/>
	<path class="st0" d="M337.5,199.5c0-0.3,0-0.5-0.1-0.8l-0.8,0.3l-0.8,0.3l12.7,31l0.8-0.3l-0.8,0.3l0,0.2c0,0.1,0,0.3-0.2,0.6
		c-0.3,0.4-0.8,1-1.6,1.5c-0.8,0.6-2,1.2-3.4,1.9c-3.2,1.5-6.5,2.8-9.1,4.1c-1.3,0.7-2.4,1.4-3.3,2.2c-0.4,0.4-0.8,0.8-1,1.3
		c-0.3,0.5-0.4,1-0.4,1.6c0,0.4,0.1,0.8,0.3,1.3c0.1,0.2,0.3,0.4,0.5,0.5c0.2,0.1,0.5,0.1,0.7,0c0.2-0.1,0.4-0.3,0.5-0.5
		c0.1-0.2,0.1-0.5,0-0.7l-5.4-13.2h-0.8l0.3,0.8l-1.4-0.7l5.7,13.8c0.2,0.5,0.7,0.7,1.2,0.5c0.5-0.2,0.7-0.7,0.5-1.1
		c-0.1-0.2-0.1-0.4-0.1-0.6c0-0.2,0.1-0.5,0.2-0.7c0.2-0.5,0.8-1,1.6-1.6c1.2-0.8,2.9-1.7,4.8-2.5c1.9-0.9,4.1-1.8,6.2-2.8
		c2-0.9,3.5-1.8,4.5-2.7c0.5-0.4,0.9-0.9,1.2-1.4c0.3-0.5,0.5-1,0.5-1.5c0-0.3,0-0.5-0.1-0.8l0,0l-12.7-31c-0.2-0.4-0.7-0.7-1.1-0.5
		c-0.5,0.2-0.7,0.7-0.5,1.1l0,0.2"/>
	<path class="st0" d="M216.2,233c-0.5-0.2,0.6-1.5,0.4-1l-6.1,12.2v0c-0.2,0.6-0.9,1.4-2.2,2.3c-1,0.7-2.4,1.1-4.2,1.1
		c-3.6,0-8.4-1.4-13.1-2.9c-4.7-1.4-9.4-2.9-13-2.9c-0.9,0-1.7,0.1-2.5,0.3c-0.8,0.2-1.5,0.6-2,1.2l0.6,0.6l0.8,0.3l-0.8-0.3
		l0.6,0.6c0.3-0.3,0.7-0.6,1.3-0.7c0.5-0.2,1.2-0.2,2-0.2c3.1,0,7.7,1.4,12.4,2.9c4.8,1.4,9.6,2.9,13.6,2.9c2,0,3.8-0.4,5.2-1.4
		c1.4-1,2.3-2,2.8-3.1l0,0"/>
	<path class="st0" d="M200.1,212.8c-4.7-1.4-5.6-2-9.2-2c-0.9,0-1.7,0.1-2.5,0.3c-0.8,0.2-1.5,0.6-2,1.2l-0.2,0.3l-12.7,31
		c-0.2,0.4,0,0.8,0.3,1.1c0.4,0.2,0.8,0.2,1.1-0.1l-0.6-0.6l0.8,0.3l12.7-31L187,213l0.6,0.6c0.3-0.3,0.7-0.6,1.3-0.7
		c0.5-0.2,1.2-0.3,2-0.2c3.1,0,3.7,0.3,8.5,1.7"/>
	<path class="st0" d="M206.1,199.5"/>
	<path class="st0" d="M204.5,198.7l-12.7,31l0,0c-0.1,0.2-0.1,0.5-0.1,0.8c0,0.5,0.2,1.1,0.5,1.5c0.4,0.7,1.2,1.4,2.1,2.1
		c1,0.7,2.2,1.4,3.7,2c3.3,1.5,6.6,2.8,9,4.1c1.2,0.6,2.2,1.3,2.9,1.9c0.3,0.3,0.6,0.6,0.7,0.9c0.1,0.3,0.2,0.5,0.2,0.7
		c0,0.2,0,0.4-0.1,0.6c-0.2,0.5,0,1,0.5,1.1c0.5,0.2,1,0,1.2-0.5l5.4-12.7l-0.6-0.7l-0.1,0.5l-1-0.9l-5.4,13.2
		c-0.1,0.2-0.1,0.5,0,0.7c0.1,0.2,0.3,0.4,0.5,0.5c0.2,0.1,0.5,0.1,0.7,0c0.2-0.1,0.4-0.3,0.5-0.5c0.2-0.4,0.3-0.8,0.3-1.3
		c0-0.6-0.2-1.1-0.4-1.6c-0.5-0.8-1.2-1.5-2.1-2.2c-1.4-1-3.1-1.8-5.1-2.7c-2-0.9-4.1-1.8-6.2-2.8c-1.9-0.9-3.3-1.7-4.1-2.5
		c-0.4-0.4-0.7-0.7-0.9-1c-0.2-0.3-0.2-0.5-0.2-0.6l0-0.2l-0.8-0.3l0.8,0.3"/>
	<path class="st1" d="M336.2,200.6l-0.5-1.2l0,0c0-0.1-0.1-0.3-0.4-0.4c-0.2-0.2-0.6-0.4-1.2-0.5c-1.1-0.3-2.7-0.5-4.7-0.5
		c-0.4,0-0.8,0-1.2,0c-2.1,0.1-5.2,0.6-9,1.3c-3.8,0.7-8.2,1.6-13.2,2.5c-10,1.8-22.3,3.6-35.6,3.6c-20.2,0-37.1-4-48-6.1
		c-3.6-0.7-6.6-1.2-8.8-1.3c-0.4,0-0.8,0-1.2,0c-1.5,0-2.8,0.1-3.8,0.3c-1,0.2-1.7,0.5-2.1,0.7c-0.3,0.2-0.3,0.3-0.4,0.4l0,0
		l-0.5,1.2c0.7,1.1,2.5,2.4,5.4,3.7c7.1,3.3,14.6,5.6,13.1,9.3l-7.1,17.2c2,0.5,4.1,1.1,6.4,1.6c10.9,2.5,26,5,46.9,5
		c24.9,0,42.4-3.8,54.4-6.8l-7-17"/>
	<path class="st0" d="M348.5,230.3L348.5,230.3L348.5,230.3c-0.1-0.1-0.1-0.3-0.4-0.5c-0.3-0.2-0.6-0.4-1.2-0.5
		c-1.1-0.3-2.7-0.5-4.7-0.5c-0.4,0-0.8,0-1.2,0c-2.1,0.1-5.1,0.7-9,1.7c-2,0.5-4.2,1.1-6.6,1.7l5.1,12.4c-1.5-3.7,6-6,13.1-9.3
		c3.5-1.6,5.3-3.1,5.7-4.4C349,230.9,348.6,230.7,348.5,230.3z"/>
	<path class="st0" d="M200.9,228.8c-0.4,0-0.8,0-1.2,0c-1.5,0-2.8,0.1-3.8,0.3c-1,0.2-1.7,0.5-2.1,0.7c-0.3,0.2-0.3,0.3-0.4,0.4l0,0
		l0,0c-0.1,0.3-0.5,0.5-0.8,0.5c0.3,1.3,2.2,2.8,5.7,4.4c7.1,3.3,14.6,5.6,13.1,9.3l5-12.2c-2.6-0.7-4.9-1.3-6.9-1.9
		C205.8,229.6,203,228.9,200.9,228.8z"/>
	<path class="st0" d="M350.1,229.7C350.1,229.7,350.1,229.7,350.1,229.7L350.1,229.7l-12.8-31l0,0c-0.2-0.5-0.6-0.9-1-1.2
		c-0.7-0.5-1.6-0.8-2.8-1c-1.1-0.2-2.5-0.3-4.2-0.3c-0.4,0-0.8,0-1.3,0c-2.3,0.1-5.4,0.6-9.2,1.3c-11.3,2.1-28.7,6-48.5,6
		c-13.3,0-25.2-1.7-34.9-3.5c-4.9-0.9-9.2-1.8-12.8-2.5c-3.7-0.7-6.7-1.2-9-1.3c-0.4,0-0.9,0-1.3,0c-2.2,0-3.9,0.2-5.2,0.6
		c-0.7,0.2-1.2,0.5-1.7,0.8c-0.5,0.3-0.8,0.7-1,1.2l0,0l-12.7,31l0,0c0,0,0,0,0,0c-0.2,0.5,0.1,1,0.5,1.1c0.1,0,0.2,0,0.3,0.1
		c0.4,0,0.7-0.2,0.8-0.5l0,0l0,0c0-0.1,0.1-0.3,0.4-0.4c0.4-0.3,1.1-0.6,2.1-0.7c1-0.2,2.3-0.3,3.8-0.3c0.4,0,0.8,0,1.2,0
		c2.1,0.1,4.9,0.7,8.5,1.7c2,0.5,4.3,1.2,6.9,1.9c11.3,3,28.3,6.7,54,6.7c20.2,0,35.7-2.5,47.2-5.1c2.9-0.6,5.5-1.3,7.8-1.9
		c2.4-0.6,4.6-1.2,6.6-1.7c3.9-1,6.9-1.6,9-1.7c0.4,0,0.8,0,1.2,0c2.1,0,3.7,0.2,4.7,0.5c0.5,0.2,0.9,0.3,1.2,0.5
		c0.3,0.2,0.3,0.3,0.4,0.4l0,0l0,0c0.1,0.3,0.5,0.5,0.8,0.5c0.1,0,0.2,0,0.3-0.1C350.1,230.6,350.3,230.1,350.1,229.7z M346.3,227.4
		c-1.1-0.2-2.5-0.3-4.2-0.3c-0.4,0-0.8,0-1.3,0c-2.4,0.1-5.4,0.8-9.3,1.8c-2,0.5-4.3,1.1-6.8,1.7c-12,3-29.5,6.8-54.4,6.8
		c-20.9,0-35.9-2.5-46.9-5c-2.3-0.5-4.5-1.1-6.4-1.6c-2.7-0.7-5.1-1.4-7.2-1.9c-3.7-1-6.5-1.7-8.9-1.8c-0.4,0-0.9,0-1.3,0
		c-2.1,0-3.9,0.2-5.2,0.6l11.1-27l0.5-1.2l0,0c0-0.1,0.1-0.3,0.4-0.4c0.4-0.3,1.1-0.6,2.1-0.7c1-0.2,2.3-0.3,3.8-0.3
		c0.4,0,0.8,0,1.2,0c2.1,0.1,5.1,0.6,8.8,1.3c10.9,2.1,27.9,6.1,48,6.1c13.4,0,25.6-1.8,35.6-3.6c5-0.9,9.5-1.8,13.2-2.5
		c3.7-0.7,6.8-1.2,9-1.3c0.4,0,0.8,0,1.2,0c2.1,0,3.7,0.2,4.7,0.5c0.5,0.2,0.9,0.3,1.2,0.5c0.3,0.2,0.3,0.3,0.4,0.4l0,0l0.5,1.2
		l11.1,27C347,227.5,346.7,227.4,346.3,227.4z"/>
	<polygon class="st0" points="243.7,206.5 240.9,227.5 238.6,227.2 238.4,228.7 248.9,230.1 249.1,228.6 246.2,228.2 249,207.2 
		251.8,207.5 252,206.1 228.2,203 228,204.4 230.8,204.8 228.1,225.8 225.2,225.5 225,226.9 235.5,228.3 235.7,226.9 233.4,226.5 
		236.1,205.5 	"/>
	<path class="st0" d="M267.3,216.4c-0.3,0-0.7-0.2-1.3-0.6c-1.8-1.2-3.5-1.9-5.1-1.9c-1.6-0.1-3,0.4-4.1,1.2c-1.1,0.9-2,1.9-2.6,3.2
		c-0.6,1.3-0.9,2.5-1,3.6l0,1.2c0,2.1,0.5,3.8,1.4,5c0.9,1.3,2,2.1,3.2,2.6c1.2,0.5,2.5,0.8,3.7,0.8c2.5,0.1,4.6-0.7,6.3-2.4
		l-0.6-0.7c-1.7,1.1-3.2,1.7-4.5,1.6c-1.5-0.1-2.6-0.7-3.4-1.9c-0.8-1.2-1.2-2.7-1.1-4.5c0.8-0.6,1.6-0.9,2.3-0.9
		c0.4,0,0.8,0.1,1.1,0.3c0.3,0.2,0.8,0.5,1.4,0.9c0.6,0.4,1.1,0.6,1.6,0.6c0.4,0,0.7,0,0.9-0.1c0.2-0.1,0.5-0.3,0.9-0.6
		c0.7-0.5,1.4-1.1,2-1.7l-0.7-1c-0.4,0.4-0.9,0.5-1.3,0.5c-0.2,0-0.6-0.2-1-0.5c-0.5-0.3-0.9-0.5-1.3-0.7c-0.4-0.1-0.8-0.2-1.2-0.2
		c-0.6,0-1.4,0.2-2.3,0.6c-1,0.4-1.7,0.8-2.3,1.2c0.1-2,0.4-3.7,0.7-5c0.4-1.3,1.1-2,2.2-1.9c0.3,0,0.6,0.1,0.8,0.3
		c0.2,0.2,0.5,0.6,0.9,1c1,1.2,2,1.9,2.9,1.9c0.9,0,2-0.3,3.3-1.1l-0.9-1.1C267.9,216.4,267.6,216.5,267.3,216.4z"/>
	<path class="st0" d="M280.3,216.2c0.4,0.5,0.6,1.2,0.6,2.1c0,0.3,0,0.9-0.2,1.8l1.5,0.1c0.1-0.2,0.2-0.6,0.3-1
		c0.1-0.5,0.3-1,0.5-1.5c0.2-0.4,0.4-0.9,0.6-1.4c0.4-0.7,0.5-1.2,0.5-1.5c0-0.3-0.2-0.5-0.4-0.6c-0.3-0.1-0.7-0.1-1.2-0.1
		c-2.5,0.2-4.6,0.3-6.2,0.4c-1.2,0-2,0-2.5,0c-0.3,0-0.8,0-1.4,0c-0.4,0-0.6,0.2-0.8,0.4c-0.2,0.3-0.3,0.9-0.3,1.9c0,1,0,2.5,0,4.7
		c0.1,2.2,0.2,3.9,0.2,5.1c0.1,1.2,0.2,2.1,0.3,2.6c0.1,0.6,0.2,1,0.4,1.1c0.2,0.2,0.4,0.3,0.7,0.2l2.1-0.1c0.6,0,1-0.1,1.2-0.3
		c0.1-0.2,0.2-0.4,0.2-0.8c0-0.3-0.1-0.9-0.2-1.8c-0.1-0.9-0.3-1.8-0.4-2.8c-0.1-1-0.2-2.2-0.2-3.7c-0.1-1.9,0-3.8,0.2-5.6l2.1-0.1
		C279.1,215.5,279.9,215.7,280.3,216.2z"/>
	<path class="st0" d="M293.5,218.5c0.1,0.3,0.3,0.8,0.6,1.5c0.5,1.2,0.8,2.1,0.8,2.4c0,0.4,0,0.8-0.2,1.2c-0.2,0.5-0.5,0.9-0.9,1.2
		c-0.4,0.4-0.9,0.6-1.5,0.6c-0.7,0.1-1.2-0.1-1.6-0.6c-0.4-0.5-0.6-1-0.7-1.6c-0.1-0.6,0.1-1.4,0.5-2.6c0.4-1.1,1.1-2.5,2.3-4.1
		C293.1,217.3,293.3,217.9,293.5,218.5z M291.5,213.6c0,0.2,0.1,0.5,0.2,0.7c0.2,0.5,0.3,0.9,0.4,1.1c0,0.2,0,0.4-0.2,0.6
		c-0.1,0.2-0.4,0.5-0.7,1c-0.4,0.4-0.7,0.9-0.9,1.3c-0.6,0.8-1,1.5-1.3,1.9c-0.3,0.4-0.6,1-1,1.7c-0.4,0.7-0.7,1.4-0.9,2.2
		c-0.2,0.7-0.3,1.4-0.2,2c0.1,0.6,0.3,1.3,0.5,2c0.3,0.7,0.7,1.2,1.3,1.6c0.6,0.4,1.3,0.6,2.2,0.5c2.5-0.3,4.1-2.3,4.8-6.1
		c0.2,0.5,0.4,1,0.6,1.5c0.2,0.6,0.4,1,0.5,1.3c0.3,0.8,0.5,1.4,0.6,1.7c0.1,0.4,0.3,0.5,0.4,0.5l3.5-0.4c0.5,0,0.7-0.2,0.7-0.4
		c0-0.2-0.2-0.6-0.6-1.3c-0.4-0.7-0.9-1.7-1.5-3.1c-0.6-1.4-1.4-3.4-2.4-6.2c-0.2-0.5-0.3-0.8-0.4-1c-0.1-0.4-0.2-0.7-0.4-1
		c-0.1-0.3-0.2-0.6-0.4-0.9c-0.1-0.3-0.2-0.5-0.2-0.7c0-0.2-0.1-0.4-0.1-0.5c0-0.1,0-0.3-0.1-0.4c-0.1-0.1-0.2-0.2-0.4-0.2l-3.5,0.4
		C291.7,213.4,291.5,213.5,291.5,213.6z"/>
	<path class="st0" d="M314.3,221c-0.1,0.1-0.1,0.3-0.1,0.3c-0.3,0.8-0.7,1.5-1.1,2.1c-0.9-0.2-1.8-0.6-2.7-1.4
		c-0.9-0.7-1.7-1.6-2.4-2.6c-0.7-1-1.1-2.1-1.3-3.1c-0.2-1.2-0.2-2.2,0.1-3.1c1.1,0,2,0.2,2.6,0.6c0.7,0.3,1.3,0.8,1.8,1.3
		c0.5,0.4,0.7,0.6,0.8,0.6c0.1,0,0.2-0.1,0.2-0.4c0.1-0.2,0.2-0.5,0.3-0.7c0.1-0.2,0.3-0.6,0.6-1.1c0.5-0.8,0.8-1.3,0.7-1.5
		c0-0.3-0.3-0.6-0.9-0.8c-0.5-0.3-1.2-0.5-1.9-0.7c-0.7-0.2-1.4-0.4-2-0.5c-0.6-0.1-1.1-0.2-1.2-0.1c-0.6,0.1-1.2,0.7-2,1.8
		c-0.7,1.1-1.3,2.4-1.7,3.8c-0.4,1.5-0.5,2.9-0.3,4.1c0.2,0.9,0.5,1.9,1.1,2.9c0.6,1,1.3,2,2.1,2.8c0.8,0.9,1.6,1.5,2.4,2
		c0.8,0.5,1.4,0.7,1.9,0.6c0.7-0.1,1.5-0.9,2.4-2.2c0.9-1.3,1.6-2.9,2-4.6l-1.3-0.7C314.4,220.7,314.3,220.9,314.3,221z"/>
	<g>
		<path class="st0" d="M322.8,73.1h3.7c-2,1-4.1,1.6-6.1,2.4c-6.2,2.3-12.5,5-17.7,9.2c-0.9,0.7-0.6,2.1-0.6,3.1
			c5.5-2.8,10.8-5.8,16.4-8.3c3.8-1.6,7.9-3.4,12.1-2.4c-4.3,1.6-8.9,2.6-13.1,4.6c-5.3,2.4-10.6,4.7-15.5,7.8
			c-0.9,0.9-1.2,2.2-1.8,3.3c5.9-3.3,12.1-5.8,18.4-8.3c0.1-0.6,0.2-1.1,0.3-1.7c0.1,0.4,0.2,1.1,0.2,1.5c3.5-1.2,7-2.5,10.6-3.1
			c1-0.2,2.1-0.1,3.1,0.1c-4.5,1.6-9.1,3-13.5,4.7c0,2.7-0.5,5.4-1.4,8c-2.2,6.2-6.9,11.1-12.4,14.5c-4.2,2.7-8.9,4.3-13.4,6.4
			c-8.7,4.4-16,11-22.5,18.1c-1.2,1.5-2.1,3.2-3.1,4.8c-0.3-1-0.8-2-0.4-3.1c2-8,5.5-15.7,10.7-22.1c0.4-0.5,0.9-1.1,0.6-1.7
			c-1.3-3.6,0.4-7.7,3-10.3c6.3-6.5,13.3-12.2,20.8-17.2C308,79.1,315.1,75.3,322.8,73.1z M289.4,102.6
			c-5.7,5.6-11.4,11.3-15.9,17.9c-2,3.1-3.7,6.4-4.2,10c2.3-5.4,6.4-9.8,11.3-13.1c8.9-6.2,19.4-9.7,28.1-16.2
			c4.9-3.6,8.8-8.8,9.9-14.8C308.1,90.5,298.3,95.9,289.4,102.6z M295.5,90.4c-1.5,2.1-3,4.6-2.3,7.3c1.9-1.5,3.8-3,5.2-5.1
			c1.1-1.7,1.6-3.7,1.7-5.7C298,87.1,296.7,88.9,295.5,90.4z M286.3,97.2c-1.6,1.9-1.1,4.6-1.4,6.8c1.4-0.9,2.8-1.9,3.8-3.2
			c1.7-2.1,2.3-4.9,2.5-7.6C289.5,94.3,287.6,95.5,286.3,97.2z M280.9,102.2c-1.6,2.2-2.7,5-2.3,7.7c0.6-0.3,1.4-0.5,1.8-1.2
			c1.4-2.3,2.3-5,2.3-7.7C282,101.4,281.3,101.7,280.9,102.2z"/>
		<path class="st0" d="M395.2,82c0.4-1.4,0.3-2.9,1.1-4.2c-0.2,5.5-2.3,10.9-5.3,15.5c-4.2,6.4-10.1,11.5-16.5,15.8
			c-5.8,4-12.3,6.7-18.9,9c-4.2,1.5-8.4,2.8-12.7,4.1l0,0.1c13-2.7,25.9-7,37.6-13.5c1.6-0.9,3.1-2.1,4.8-2.9c0.6,0.8-0.6,1.4-1,2.1
			c-10.7,11.9-24.6,20.6-39.4,26.5c-14.1,5.8-29.4,7.6-44.3,10.3c-5,1-9.9,2.5-14.7,4.1c-4.6,1.4-9.5,3.4-12.2,7.6
			c0,0.6,0,1.2-0.1,1.8c-2.5,1.5-5.2,2.8-7.4,4.6c-3.1,2.3-6.1,4.8-8.4,7.9c-1.6,2.2-2.7,4.8-2.6,7.5c0.1,3.4,2,6.9,5.1,8.5
			c3.5,1.7,7.5,1.4,11.2,0.4c0-0.2,0.1-0.5,0.2-0.6c0,0.5,0,1,0,1.5c-2.2,0.9-4.6,0.9-6.9,1.2c-4.9,0.4-10.4-2-12.4-6.7
			c-1-2.9-1.9-5.9-1.5-8.9c0.4-2.5,0.4-5,0.9-7.4c1.4-8.6,5.9-16.5,11.8-23c5.5-6.1,12.2-11.1,19.3-15.2c1.8-1.1,3.7-1.8,5.3-3.2
			c5.3-4.4,11-8.3,17.1-11.5c0.5-3.5,3.6-5.9,6.5-7.4c13.6-5.2,28-8.5,42.6-9.1c1.6-2.4,2.6-5.2,3.9-7.8c-0.3,2.7-1.6,5.2-2.6,7.8
			c2.3,0.1,4.7,0.1,7,0.4c1,0.1,1.9,0.7,2.7,1.3c-3.5-0.1-7-0.3-10.4-0.3c-0.5,0.9-1,1.8-1.5,2.7c3.5-0.1,7-0.2,10.4,0.6
			c1.2,0.2,2.2,0.8,3.2,1.4c-4.9-0.2-9.7-1-14.6-0.6c-0.6,0.8-1.3,1.7-1.9,2.6c3.9,0.1,7.9,0.2,11.8,0.7c1.6,0.2,3.2,0.5,4.4,1.5
			c-5.9-0.3-11.8-0.8-17.6-0.6c-2.7,2.6-5.7,5-9.1,6.9c-6.9,4.1-14.7,6.3-22.4,8.2c-7.8,1.9-15.7,3.6-23.3,6
			c-7.6,2.3-15.1,5.7-21.3,10.8c-1.8,1.5-3.9,2.9-5.2,4.9c0.8-0.2,1.7-0.4,2.5-0.7c4.5-2,8.8-4.3,13.4-6c6.7-2.6,13.6-4.6,20.5-6.3
			c2.7-0.7,5.5-1.1,8.1-2.1c8.1-3,16.4-5.5,24.6-7.8c7.2-2,14.3-4.2,21.3-6.8c8.2-3.2,16.3-6.7,23.3-12
			C388.2,96.7,393.4,89.9,395.2,82z M341.5,99.3c-0.8,0.2-1.7,0.2-2.3,0.7c-0.6,0.6-0.9,1.3-1.4,2c4.4-0.4,8.8-0.7,13.2-1.1
			c0.9-0.9,1.7-1.8,2.5-2.8C349.4,98.1,345.4,98.5,341.5,99.3z M329,103c-1.6,1-3.2,2.2-3.7,4.1c4.3-0.9,8.9-2.6,11.3-6.6
			C333.8,100.3,331.3,101.7,329,103z M337.6,103.2c-1.5,0.2-2.6,1.4-3.7,2.2c3.9-0.5,7.8-0.4,11.7-0.7c1.4-0.5,2.5-1.5,3.6-2.4
			C345.3,102.5,341.5,102.7,337.6,103.2z M318.4,105.3c-1.3,1.2-2.2,2.8-3.2,4.2c4.4-0.3,8.3-2.9,10.7-6.6
			C323.3,103.2,320.6,103.7,318.4,105.3z M312.6,106.8c-2.3,1.3-4.5,3-5.7,5.4c0.7-0.1,1.5,0,2.2-0.4c2.3-1.4,4.3-3.2,5.7-5.4
			C314,106.4,313.2,106.4,312.6,106.8z M319.5,109.8c-5.5,1.9-11,3.8-16.2,6.4c-3.9,1.6-7.4,4.2-10.7,6.7c8.5-3.4,17.4-5.4,26.2-7.6
			c8.2-2,16.3-4.6,23.7-8.8C334.8,107.1,327.1,108.1,319.5,109.8z M272.7,148.3c-4.6,2.1-9.1,4.7-12.3,8.7
			c-2.3,2.8-3.4,6.5-2.8,10.1c0.4-2.9,1.7-5.6,3.7-7.7c4.4-5,10.3-8.3,16.2-11.3c4.7-2.3,9.6-4.3,14.6-5.9
			C285.5,143.6,278.9,145.5,272.7,148.3z"/>
		<path class="st0" d="M203.3,119c3.8-3.6,9.4-5,14.5-4.2c-1.8,1.9-4.4,2.9-6,5c2.7,0.4,5.5,1.2,7.8,2.8c1,0.8,1.9,1.9,1.8,3.2
			c-1.6,0-2.9-1-4.3-1.5c-3.7-1.2-7.7-0.1-10.9,1.8c-4.3,2.5-8,6.2-10.4,10.5c1.4,3,2.4,6.4,2.3,9.8c0.1,2.9-0.6,5.7-0.7,8.6
			c1.3,1.5,2.6,3,4,4.5c0.5,0.6,1.3,1.2,2.2,0.8c1.7-0.7,2-2.7,2.1-4.3c-0.5-0.4-2.3-0.6-1.5-1.5c3.2-3.1,5.9-7.3,5.9-12
			c0-2-1.5-3.6-3.3-4c0-1.6-0.1-3.1-0.1-4.7c2.9,1.5,5.7,3.6,6.8,6.7c1,2.7,0.3,5.7-1.2,8.1c-1.3,2.3-3.3,4.1-5.4,5.7
			c0.3,0.5,0.9,0.8,1.4,1.2c-1.5,3.3-2.9,6.5-4.4,9.8c-3.2-2.9-6.6-5.7-9.7-8.7c-0.1-3,0.5-6,0.6-9.1c0.2-3.3-0.5-6.5-1.7-9.6
			c-2.1-1.8-4.9-2.8-6.9-4.9c2.9-0.1,5.9,0,8.7-0.9C197.1,127.4,199.4,122.5,203.3,119z"/>
		<path class="st0" d="M215.9,119.3c7.6-2.8,16-1.8,23.4,1.1c7.3,3,13.9,7.5,19.2,13.3c1.3,1.6,2.9,3.2,3,5.4
			c-0.8,0.1-1.8-0.1-2.5,0.5c-0.9,0.8-1.6,1.8-2.2,2.8c-2.8,4.8-4.5,10-6.5,15.2c1.5-5.2,1-10.9-1-15.9c-3-7.9-9.3-14.6-17.3-17.6
			c-3.5-1.3-7.2-1.8-10.9-1.6C220.1,120.5,218,119.6,215.9,119.3z"/>
		<path class="st0" d="M224.7,126.8c1,1.8,0.6,4.1-0.5,5.8C224.7,130.7,224.9,128.7,224.7,126.8z"/>
		<path class="st0" d="M227.9,126.9c1.7,2.6,0.4,5.8-0.9,8.2C227.8,132.5,228.3,129.7,227.9,126.9z"/>
		<path class="st0" d="M231.3,128c1.7,3.2,0,6.9-1.6,9.8C230.7,134.6,231.4,131.3,231.3,128z"/>
		<path class="st0" d="M234.5,129.8c1.7,3.8-0.5,7.7-2.1,11.1C233.4,137.3,234.3,133.6,234.5,129.8z"/>
		<path class="st0" d="M371.9,131.9c0.4-0.2,0.9-0.3,1.4-0.1c-10.1,9.6-23.2,15.6-36.4,19.5c-7.8,2.4-15.8,3.9-23.9,5.1
			c0.2,0.6,0.4,1.2,0.6,1.9c9.9-0.2,19.8-0.9,29.4-3.7c1.7-0.4,3.3-1.4,5-1.5c-4.7,4.2-10.5,7-16.4,9.2c-5.8,2.1-11.9,3.5-18,4.3
			c-0.3,1.1-0.7,2.1-1.1,3.2c5.8,0.9,11.8,2.7,16,7.1c2.4,2.5,4.7,5.9,4.1,9.6c-0.3,2.4-2.1,4.5-4.5,5c1-0.9,2.5-1.5,3.1-2.9
			c1.2-2.3,0.1-5-1.5-6.8c-2-2.3-4.9-3.7-7.9-4.2c-4.4-0.9-8.9-0.9-13.4-0.5c-1.2,0-1.7,1.1-2.5,1.7c-6.1,5.4-14.1,9-22.3,8.7
			c-7.7-0.2-15.7-4.1-19.5-11.1c-1-2.2-2.7-4.1-4.2-5.9c0.9-1,1.6-2.1,2.5-3c6.6-5.6,14.4-9.7,22.6-12.2c5-1.6,10-2.8,15.1-3.8
			c3.9-0.5,7.8-0.6,11.7-1c4.2-0.4,8.4,0.2,12.5,0.1c-2.3-1.3-5-1.2-7.5-1.3c-6.7,0.1-13.4,0.7-20.1,1.4c0.8-0.5,1.5-1.2,2.3-1.8
			c2.3-0.7,4.6-0.9,7-1.1c3-0.3,5.9-0.6,8.9-0.8c3.1-0.1,6.2,0.2,9.4,0.1c-1.7-1.1-3.9-0.8-5.8-1c-6.2,0.5-12.5,0.7-18.7,1.5
			c0.5-0.8,0.9-1.9,2-2c6.8-1.9,14-1.9,21-2c6.3-0.8,12.7-1.7,19-2.5C352.1,139.1,362.4,136.6,371.9,131.9z M296.7,158.2
			c5.2,0.1,10.4,0,15.7,0c-0.1-0.6-0.2-1.1-0.3-1.7C306.9,157.1,301.8,157.8,296.7,158.2z M274.2,168.1c-4,0.1-8,0.9-11.8,2.1
			c1.8-0.2,3.4,0.8,5.1,1.2c4.2,1.1,8.6,1.4,12.9,0.9c9.2-1,18.3-3.3,27.6-3c0.6-0.7,1.1-1.5,1.7-2.2
			C297.9,168.2,286,167.9,274.2,168.1z M268.4,180.1c3.1,2.3,7.1,3.2,10.9,3c5.7-0.1,11.4-1.8,16.4-4.4c-3,0.2-6,0.8-9.1,0.6
			c-8.6-0.2-17.5-2.2-24.3-7.7C263.6,174.8,265.5,178,268.4,180.1z"/>
		<path class="st0" d="M237.6,132.1c0.7,1.7,0.6,3.6,0.1,5.4c-0.6,2.5-1.8,4.8-3,7C236.1,140.5,237,136.3,237.6,132.1z"/>
		<path class="st0" d="M239.1,140.9c0.5-1.9,0.6-3.9,1.3-5.7c1.5,4.9-1.3,9.8-3.7,14C237.6,146.4,238.5,143.7,239.1,140.9z"/>
		<path class="st0" d="M215.2,138.3c4.1,1.3,7.5,4.6,8.8,8.7c2.2,6.2,0,13.4-4.7,17.8c-1.2,1.3-2.9,2-3.8,3.6
			c-2.5,3.6-5,7.9-4.3,12.5c0.2,1.5,1.4,2.6,2.1,3.9c-0.3,1.4-0.9,2.7-1.4,4c-2.8-1.5-4.3-4.8-4.2-7.9c0.2-5.9,3.7-11.3,8.5-14.6
			c2.7-2,4.8-4.9,5.5-8.3c1-3.7,1-8-1-11.4c-1.1-1.8-2.7-3-4.5-4C215.8,141.3,215.5,139.8,215.2,138.3z"/>
		<path class="st0" d="M242.9,138.6c0.4,1.3,0.6,2.6,0.4,3.9c-0.5,4.1-2.7,7.7-4.7,11.3C240.5,148.8,241.7,143.7,242.9,138.6z"/>
		<path class="st0" d="M245.4,142.8c1.4,5.7-2.1,10.9-4.9,15.6C242.5,153.3,243.8,148,245.4,142.8z"/>
		<path class="st0" d="M292.5,148.7c1.8-1.2,3.9-2.2,6.2-2.1c-1,1.6-2.3,3-3.9,4.1c-1.5,1.1-3.4,1.3-5.1,1.7
			C289.8,150.7,291.2,149.6,292.5,148.7z"/>
		<path class="st0" d="M246.1,152c0.5-1.6,0.9-3.2,1.7-4.7c1.2,6.2-2.6,11.7-5.8,16.6C243.5,160,244.9,156,246.1,152z"/>
		<path class="st0" d="M284.7,150.6c1.5-1,3.2-1.4,4.9-2c-0.9,3.6-4.5,5.7-8,6.1C282.5,153.3,283.2,151.6,284.7,150.6z"/>
		<path class="st0" d="M279.4,152.7c0.6-0.4,1.3-0.5,2-0.6c-1.2,2.6-3.6,4.9-6.6,5.2C276.2,155.6,277.7,154,279.4,152.7z"/>
		<path class="st0" d="M156.1,157.1c6.2,1,11.7,6.6,11.4,13C161.6,168.7,155.8,163.6,156.1,157.1z"/>
		<path class="st0" d="M156,170.1c6.4-0.8,14.3,2.2,16.9,8.4c-1.4,0-4.1-0.1-5.4-0.1C162.5,178.4,157.5,175,156,170.1z"/>
		<path class="st0" d="M169.8,163.1c6.1,2.6,9.2,10,6.9,16.2C171.6,176.1,167.3,169.2,169.8,163.1z"/>
		<path class="st0" d="M179.3,172.4c5.3,2.5,7.8,9.1,5.6,14.5C180.5,183.9,176.9,177.7,179.3,172.4z"/>
		<path class="st0" d="M162,181.1c5.7-2.5,13.8-2,18,3c-1.3,0.4-3.8,1.1-5,1.5C170.4,186.9,164.8,185.2,162,181.1z"/>
		<path class="st0" d="M173.3,187.6c6-1.4,13.6,0.6,16.7,6.2c-1.3,0.1-3.8,0.4-5.1,0.5C180.3,194.8,175.3,192,173.3,187.6z"/>
		<path class="st0" d="M187.3,180.8c6.4,1.7,10.5,8.6,9.1,15.1C190.9,193.4,185.6,187.2,187.3,180.8z"/>
		<path class="st0" d="M385.8,155c-6.2,1-11.7,6.6-11.4,13C380.3,166.6,386.1,161.5,385.8,155z"/>
		<path class="st0" d="M385.9,168c-6.4-0.8-14.3,2.2-16.9,8.4c1.4,0,4.1-0.1,5.4-0.1C379.4,176.3,384.4,172.9,385.9,168z"/>
		<path class="st0" d="M372.1,161c-6.1,2.6-9.2,10-6.9,16.2C370.3,174,374.6,167.1,372.1,161z"/>
		<path class="st0" d="M362.6,170.3c-5.3,2.5-7.8,9.1-5.6,14.5C361.3,181.8,364.9,175.6,362.6,170.3z"/>
		<path class="st0" d="M379.9,179c-5.7-2.6-13.8-2-18,3c1.3,0.4,3.8,1.1,5,1.5C371.5,184.8,377.1,183.1,379.9,179z"/>
		<path class="st0" d="M368.5,185.5c-6-1.4-13.6,0.6-16.7,6.2c1.3,0.1,3.8,0.4,5.1,0.5C361.6,192.6,366.6,189.9,368.5,185.5z"/>
		<path class="st0" d="M354.6,178.7c-6.4,1.7-10.5,8.6-9.1,15.1C351,191.3,356.2,185.1,354.6,178.7z"/>
	</g>
	<polygon class="st0" points="222.8,265 266.3,264.1 266.2,266 	"/>
	<polygon class="st0" points="272.2,265 271.1,266.1 270,265 271.1,263.9 	"/>
	<polygon class="st0" points="319.1,265 275.6,264.1 275.7,266 	"/>
	<path class="st0" d="M272.2,270.1c1.4-0.2,2.9-0.1,4.2,0.4c0,0.2,0,0.5,0,0.7c-0.6-0.3-1.1-0.6-1.8-0.8
		C273.9,270.3,273,270.5,272.2,270.1z"/>
	<path class="st0" d="M265.3,270.6c1.1-0.9,2.8-0.7,4.1-0.5c-0.9,0.5-2,0.1-2.9,0.7C266.2,270.9,265.4,271.5,265.3,270.6z"/>
	<path class="st0" d="M262.9,275.3c1-1.7,2.4-3.2,4.1-4.2c-0.2,0.7-0.6,1.3-0.4,2c0.3,1.3,1.1,2.3,1.7,3.4
		C266.5,276.5,264.7,276,262.9,275.3z"/>
	<path class="st0" d="M268.4,271.1c1.5-0.5,3.2-0.4,4.7-0.1c1.1,0.2,1.6,1.4,1.2,2.4c-0.7,1.7-2,3.1-3.4,4.3
		c-1.5-1.1-2.7-2.6-3.4-4.4C267.2,272.5,267.5,271.4,268.4,271.1z"/>
	<path class="st0" d="M274.8,270.9c1.8,0.8,3.1,2.5,4.1,4.1c-1.7,0.9-3.6,1.3-5.5,1.4c0.6-1,1.4-1.9,1.7-3
		C275.4,272.6,275.1,271.7,274.8,270.9z"/>
	<path class="st0" d="M276.6,276.8c0.4-0.2,0.9-0.3,1.4-0.3c0.3,0.9,0.3,1.9,0.5,2.8c-0.9,0-1.8,0-2.7,0
		C276.1,278.5,276.2,277.6,276.6,276.8z"/>
	<path class="st0" d="M263.3,279.2c0.1-0.9,0.3-1.8,0.5-2.7c0.5,0.2,1,0.4,1.5,0.5c0.2,0.8,0.4,1.5,0.6,2.3
		C265,279.3,264.1,279.2,263.3,279.2z"/>
	<path class="st0" d="M266.1,277.2c1,0.1,1.9,0.1,2.9,0.1c0.5,0.5,1.1,0.9,1.7,1.3c-0.9,0.9-1.9,1.7-3.1,2.3
		C267,279.7,266.4,278.5,266.1,277.2z"/>
	<path class="st0" d="M273,277.2c0.9,0,1.8-0.1,2.7-0.2c-0.4,1.3-0.7,2.6-1.6,3.7c-1.1-0.1-1.8-1.1-2.6-1.7
		C272,278.4,272.5,277.8,273,277.2z"/>
	<path class="st0" d="M270.8,279.6c0.8,0.5,1.5,1.1,2.1,1.8c-0.5,1-1.3,1.9-2.1,2.7c-0.8-0.8-1.5-1.8-2.1-2.8
		C269.4,280.8,270.1,280.1,270.8,279.6z"/>
	<path class="st0" d="M263.5,279.9c0.2,0,0.5,0,0.7,0c0,0.5,0,1,0,1.4c-0.2,0-0.6,0-0.7,0C263.5,280.9,263.5,280.4,263.5,279.9z"/>
	<path class="st0" d="M277.6,279.9c0.1,0,0.4,0,0.6,0.1c0,0.5,0,1,0.1,1.5c-0.2,0-0.5,0-0.7,0C277.6,281,277.6,280.5,277.6,279.9z"
		/>
	<path class="st0" d="M264.7,280.1c0.5,0,1,0,1.5-0.1c0.4,0.7,1,1.4,1.8,1.8c-0.9,0.3-1.9,0.6-2.9,0.8
		C264.9,281.7,264.8,280.9,264.7,280.1z"/>
	<path class="st0" d="M275.4,280.1c0.5,0,1.1,0.1,1.6,0.1c-0.1,0.8-0.1,1.6-0.4,2.4c-1,0-1.9-0.4-2.8-0.8
		C274.6,281.4,275.1,280.8,275.4,280.1z"/>
	<path class="st0" d="M266.7,283c0.6-0.2,1.1-0.4,1.7-0.6c0.5,0.7,1,1.4,1.6,2c-0.7,0.5-1.3,1-2.1,1.4C267.4,285,267,284,266.7,283z
		"/>
	<path class="st0" d="M271.7,284.4c0.5-0.6,1.1-1.3,1.6-1.9c0.6,0.2,1.2,0.4,1.8,0.7c-0.3,1-0.7,1.9-1.3,2.8
		C272.9,285.5,272.3,285,271.7,284.4z"/>
	<path class="st0" d="M265.4,282.9c1,0,0.9,1.2,1.3,1.9c-0.3,0.1-0.8,0.4-1.1,0.5C265.5,284.5,265.4,283.7,265.4,282.9z"/>
	<path class="st0" d="M275.6,283c0.2,0.1,0.5,0.2,0.8,0.3c-0.1,0.7-0.2,1.3-0.3,2c-0.3-0.1-0.7-0.2-1-0.3
		C275.2,284.3,275.4,283.7,275.6,283z"/>
	<path class="st0" d="M269,286.2c0.6-0.5,1.2-1,1.9-1.4c0.5,0.5,1.1,0.9,1.7,1.4c-0.5,0.9-0.9,2-1.8,2.5
		C269.9,288,269.5,287.1,269,286.2z"/>
	<path class="st0" d="M231.2,272c0.5-0.3,0.7-0.8,0.7-1.5c0-0.2-0.1-0.4-0.3-0.6c-0.2-0.2-0.5-0.3-0.9-0.3c-0.5,0-0.8,0.1-1.1,0.4
		c-0.3,0.2-0.4,0.6-0.4,1c0,0.4,0.1,0.7,0.2,1c0.2,0.4,0.5,0.9,1,1.3l0.7,0.6c0.6,0.5,1,1,1.2,1.3c0.4,0.7,0.6,1.4,0.6,2.1
		c0,1.4-0.5,2.4-1.4,3.1c-0.8,0.7-1.9,1-3.2,1c-1.6,0-2.6-0.5-3.2-1.5c-0.2-0.4-0.3-0.8-0.3-1.2c0-0.9,0.2-1.5,0.7-2
		c0.5-0.5,1-0.7,1.6-0.7c0.6,0,1,0.2,1.3,0.6c0.1,0.1,0.2,0.3,0.2,0.5c-0.8,0-1.4,0.3-1.7,0.8c-0.1,0.2-0.2,0.4-0.2,0.7
		c0,0.5,0.1,0.8,0.4,1.2c0.3,0.3,0.7,0.5,1.2,0.5s1-0.2,1.3-0.6c0.4-0.4,0.5-0.9,0.5-1.4c0-0.6-0.1-1.1-0.2-1.4
		c-0.2-0.4-0.4-0.7-0.6-1c-0.2-0.3-0.5-0.6-0.8-0.9c-0.3-0.3-0.6-0.6-0.8-0.9c-0.6-0.7-0.9-1.4-0.9-2c0-0.8,0.4-1.5,1.1-2.1
		c0.7-0.6,1.6-0.8,2.7-0.8c1.3,0,2.1,0.4,2.5,1.2c0.1,0.2,0.1,0.5,0.1,0.9c0,0.4-0.1,0.7-0.4,1c-0.2,0.3-0.5,0.5-0.9,0.5
		C231.7,272.4,231.4,272.3,231.2,272z"/>
	<path class="st0" d="M238.8,278.1c-0.7,2-1.9,3-3.5,3c-0.4,0-0.8-0.2-1.2-0.5c-0.3-0.3-0.5-0.8-0.5-1.5c0-0.3,0-0.7,0.1-1.1
		l1.1-5.2h2.3l-1.2,5.5c0,0.2-0.1,0.4-0.1,0.6c0,0.4,0.2,0.6,0.7,0.6c0.3,0,0.6-0.1,0.9-0.4c0.3-0.3,0.5-0.6,0.6-1H238.8z
		 M237.7,270.7c0,0.4-0.1,0.7-0.4,0.9c-0.3,0.2-0.6,0.4-0.9,0.4s-0.7-0.1-0.9-0.4c-0.2-0.2-0.4-0.6-0.4-0.9c0-0.4,0.1-0.7,0.4-0.9
		c0.2-0.3,0.6-0.4,0.9-0.4s0.7,0.1,0.9,0.4S237.7,270.3,237.7,270.7z"/>
	<path class="st0" d="M244.3,278.8c0,0.5,0.2,0.7,0.6,0.7c0.4,0,0.6-0.1,0.8-0.4c0.2-0.2,0.4-0.6,0.6-1.1h0.7
		c-0.6,1.8-1.5,2.8-2.6,3c-0.2,0-0.4,0-0.6,0c-0.3,0-0.5-0.1-0.7-0.2c-0.7-0.3-1-0.8-1-1.7c0-0.4,0.1-1.2,0.4-2.1
		c0.2-1,0.4-1.6,0.4-2c0-0.6-0.2-0.8-0.6-0.8c-0.4,0-0.7,0.3-1,0.9c-0.1,0.2-0.2,0.4-0.2,0.6l-1.1,5.2h-2.3l1.7-8.1h2.3l-0.2,0.8
		c0.5-0.6,1.2-0.9,1.9-0.9c0.5,0,1,0.1,1.3,0.4c0.3,0.3,0.5,0.7,0.5,1.3c0,0.6-0.1,1.2-0.3,1.9l-0.4,1.6
		C244.3,278.3,244.3,278.6,244.3,278.8z"/>
	<path class="st0" d="M250.3,272.7c1.3,0,2,0.5,2,1.5c0,0.4-0.1,0.7-0.3,0.9c-0.2,0.2-0.4,0.3-0.6,0.3c-0.2,0-0.4-0.1-0.6-0.2
		c0.1-0.4,0.2-0.7,0.2-1c0-0.4-0.2-0.7-0.5-0.7c-0.3,0-0.6,0.3-1,0.8c-0.5,0.8-0.8,1.8-1,3c-0.1,0.4-0.1,0.7-0.1,1.2
		c0,0.8,0.4,1.2,1.1,1.2c0.6,0,1.1-0.1,1.6-0.4c0.4-0.3,0.9-0.7,1.4-1.2h0.6c-1.2,2-2.7,3-4.5,3c-0.8,0-1.4-0.2-1.9-0.6
		c-0.5-0.4-0.7-1.1-0.7-2c0-1.2,0.3-2.4,0.9-3.6c0.5-0.9,1.1-1.5,2-1.9C249.4,272.8,249.8,272.7,250.3,272.7z"/>
	<path class="st0" d="M259.3,278.1c-1.2,2-2.7,3-4.5,3c-0.8,0-1.4-0.2-1.9-0.6c-0.5-0.4-0.7-1.1-0.7-2c0-1.2,0.3-2.4,0.9-3.6
		c0.5-0.9,1.1-1.5,2-1.9c0.4-0.2,0.9-0.3,1.3-0.3c0.8,0,1.3,0.1,1.5,0.4c0.3,0.3,0.4,0.7,0.4,1.1c0,0.9-0.4,1.7-1.1,2.4
		c-0.7,0.6-1.6,1-2.6,1.1c0,0.3,0,0.5,0,0.6c0,0.6,0.1,0.9,0.3,1.1c0.2,0.2,0.5,0.3,0.8,0.3c0.6,0,1.2-0.1,1.6-0.4
		c0.4-0.3,0.9-0.7,1.4-1.2H259.3z M257.2,274.2c0-0.4-0.1-0.6-0.4-0.6c-0.4,0-0.8,0.4-1.2,1.1c-0.4,0.7-0.6,1.5-0.8,2.3
		c0.6,0,1.2-0.3,1.6-0.9C257,275.5,257.2,274.9,257.2,274.2z"/>
	<g>
		<path class="st2" d="M283.5,281.6l1.9-8.8H284l0.2-0.6c0.5,0,1,0,1.3-0.1c0.8-0.2,1.5-0.5,2.2-1l-2.2,10.5H283.5z"/>
		<path class="st2" d="M291.9,275.6c0.2,0.2,0.3,0.5,0.3,0.7c0,0.4-0.2,0.7-0.6,0.9c-0.4,0.3-0.8,0.4-1.4,0.4c-0.6,0-1-0.2-1.4-0.7
			c-0.3-0.5-0.5-1.1-0.5-1.7c0-1.2,0.4-2.1,1.1-2.9c0.7-0.8,1.6-1.2,2.6-1.2c1.8,0,2.7,1.1,2.7,3.3c0,1.4-0.2,2.7-0.6,3.8
			c-0.4,1.1-0.9,2-1.7,2.6c-0.7,0.6-1.6,0.9-2.5,0.9c-0.5,0-0.9-0.1-1.2-0.4c-0.3-0.3-0.5-0.6-0.5-0.9c0-0.7,0.4-1,1.2-1
			c-0.1,0.1-0.2,0.3-0.2,0.5c0,0.2,0.1,0.4,0.2,0.5c0.1,0.2,0.3,0.2,0.4,0.2c0.2,0,0.3,0,0.4,0c0.1,0,0.2-0.1,0.4-0.1
			c0.2-0.1,0.4-0.2,0.5-0.3c0.4-0.4,0.8-1,1.1-1.8c0.3-0.8,0.5-2,0.6-3.5c0-0.4,0-0.6,0-0.7c0-0.8-0.1-1.3-0.3-1.6
			c-0.2-0.3-0.5-0.4-1-0.4c-0.4,0-0.8,0.3-1.2,1c-0.4,0.6-0.6,1.3-0.6,2.1c0,0.4,0.1,0.7,0.2,1c0.1,0.3,0.3,0.4,0.6,0.4
			C291.3,276.4,291.7,276.2,291.9,275.6z"/>
		<path class="st2" d="M298.8,275.6c0.2,0.2,0.3,0.5,0.3,0.7c0,0.4-0.2,0.7-0.6,0.9c-0.4,0.3-0.8,0.4-1.4,0.4c-0.6,0-1-0.2-1.4-0.7
			c-0.3-0.5-0.5-1.1-0.5-1.7c0-1.2,0.4-2.1,1.1-2.9c0.7-0.8,1.6-1.2,2.6-1.2c1.8,0,2.7,1.1,2.7,3.3c0,1.4-0.2,2.7-0.6,3.8
			c-0.4,1.1-0.9,2-1.7,2.6c-0.7,0.6-1.6,0.9-2.5,0.9c-0.5,0-0.9-0.1-1.2-0.4c-0.3-0.3-0.5-0.6-0.5-0.9c0-0.7,0.4-1,1.2-1
			c-0.1,0.1-0.2,0.3-0.2,0.5c0,0.2,0.1,0.4,0.2,0.5c0.1,0.2,0.3,0.2,0.4,0.2c0.2,0,0.3,0,0.4,0c0.1,0,0.2-0.1,0.4-0.1
			c0.2-0.1,0.4-0.2,0.5-0.3c0.4-0.4,0.8-1,1.1-1.8c0.3-0.8,0.5-2,0.6-3.5c0-0.4,0-0.6,0-0.7c0-0.8-0.1-1.3-0.3-1.6
			c-0.2-0.3-0.5-0.4-1-0.4c-0.4,0-0.8,0.3-1.2,1c-0.4,0.6-0.6,1.3-0.6,2.1c0,0.4,0.1,0.7,0.2,1c0.1,0.3,0.3,0.4,0.6,0.4
			C298.2,276.4,298.6,276.2,298.8,275.6z"/>
		<path class="st2" d="M304.5,281.6l0.8-3.9h-3.4c0.1-0.3,0.2-0.5,0.3-0.8l0.9-1.9c0.6-1.2,0.8-2.3,0.8-3.1c0-0.3,0-0.6-0.1-0.8
			c0.7,0,1.2,0.3,1.4,0.8c0.1,0.2,0.1,0.4,0.1,0.8c0,0.3-0.1,0.7-0.2,1.1c-0.1,0.4-0.3,0.7-0.5,1.1c-0.2,0.3-0.4,0.7-0.7,1
			c-0.2,0.3-0.4,0.7-0.6,1h2.2l1.1-5.4l2.1-0.3l-1.2,5.6h0.9l-0.3,1h-0.8l-0.8,3.9H304.5z"/>
	</g>
	<g>
		<path class="st2" d="M212.3,254.9h0.8l0.6-0.7v-1l-0.5-0.6h-0.5l-0.5,0.6v0.5h-1v-0.9l1.1-1.2h1.4l1.1,1.2v1.8l-0.6,0.7l0.8,0.8
			v2.4l-1.2,1.2h-1.5l-1.2-1.2V257h1v1.1l0.6,0.7h0.7l0.6-0.7v-1.5l-0.7-0.7h-0.9V254.9z"/>
		<path class="st2" d="M217.4,251.6h2.8v8h-1v-7.1h-1l-1,7.1h-1.5v-0.9h0.6L217.4,251.6z"/>
		<path class="st2" d="M222.3,251.6h1.9l1.2,8h-1l-0.3-2.1h-1.7l-0.3,2.1h-1L222.3,251.6z M223.4,252.6h-0.2l-0.6,4h1.4L223.4,252.6
			z"/>
		<path class="st2" d="M227.2,252.5h-1.4v-0.9h3.8v0.9h-1.4v7.1h-1V252.5z"/>
		<path class="st2" d="M234.6,258.4l-1.2,1.3h-1.5l-1.2-1.3v-5.7l1.2-1.2h1.5l1.2,1.2V258.4z M233.6,258v-4.9l-0.6-0.6h-0.7
			l-0.6,0.6v4.9l0.7,0.7h0.7L233.6,258z"/>
		<path class="st2" d="M237.8,255.5l0.6-2l0.6-1.8h1l-2.6,8h-1l0.9-2.8l-1.8-5.2h1.1l0.6,1.8L237.8,255.5L237.8,255.5z"/>
		<path class="st2" d="M243.8,253.2l-0.6-0.6h-0.7l-0.6,0.6v4.9l0.6,0.7h0.7l0.6-0.7v-0.9l1,0v1.3l-1.2,1.3h-1.5l-1.2-1.3v-5.6
			l1.2-1.2h1.5l1.2,1.2v1.2h-1V253.2z"/>
		<path class="st2" d="M247,252.5h-1.4v-0.9h3.8v0.9H248v7.1h-1V252.5z"/>
		<path class="st2" d="M254.3,258.4l-1.2,1.3h-1.5l-1.2-1.3v-5.7l1.2-1.2h1.5l1.2,1.2V258.4z M253.4,258v-4.9l-0.6-0.6H252l-0.6,0.6
			v4.9l0.7,0.7h0.7L253.4,258z"/>
		<path class="st2" d="M255.9,251.7h2.4l1.2,1.2v2l-0.6,0.7l0.8,0.8v2.1l-1.2,1.2h-2.6V251.7z M257.9,255.1l0.6-0.7v-1.2l-0.6-0.6
			h-1v2.5H257.9z M256.9,258.7h1.2l0.6-0.6v-1.3l-0.7-0.7h-1.1V258.7z"/>
		<path class="st2" d="M264,253.2l-0.6-0.6h-0.7l-0.6,0.6v4.9l0.6,0.7h0.7l0.6-0.7v-0.9l1,0v1.3l-1.2,1.3h-1.5l-1.2-1.3v-5.6
			l1.2-1.2h1.5l1.2,1.2v1.2h-1V253.2z"/>
		<path class="st2" d="M267.4,254.9h0.5l1.5-3.2h1.1l-1.8,3.7l2,4.3h-1.1l-1.8-3.8h-0.5v3.8h-1v-8h1V254.9z"/>
		<path class="st2" d="M272.2,251.6h1.9l1.2,8h-1l-0.3-2.1h-1.7l-0.3,2.1h-1L272.2,251.6z M273.3,252.6h-0.2l-0.6,4h1.4L273.3,252.6
			z"/>
		<path class="st2" d="M278.9,257h-0.8l-1.3,2.7h-1.1l1.4-3.1l-0.9-0.9v-2.8l1.2-1.2h2.4v8h-1V257z M278.9,252.6h-1l-0.7,0.7v2
			l0.7,0.7h1V252.6z"/>
		<path class="st2" d="M282.9,252.6v-0.9h4.3v8h-1v-7.1h-1.8v7.1h-1v-6.8l0.4-0.2v-0.1H282.9z"/>
		<path class="st2" d="M288.7,259.7v-8h1v2.8l-0.2,3.4h0l0.8-3.3l0.9-2.9h1.3v8h-1v-3.8l0.2-2.9h0l-0.7,2.8l-1.3,3.9H288.7z"/>
		<path class="st2" d="M294.1,251.7h2.4l1.2,1.2v2l-0.6,0.7l0.8,0.8v2.1l-1.2,1.2h-2.6V251.7z M296.1,255.1l0.6-0.7v-1.2l-0.6-0.6
			h-1v2.5H296.1z M295.1,258.7h1.2l0.6-0.6v-1.3l-0.7-0.7h-1.1V258.7z"/>
		<path class="st2" d="M303.3,258.4l-1.2,1.3h-1.5l-1.2-1.3v-5.7l1.2-1.2h1.5l1.2,1.2V258.4z M302.4,258v-4.9l-0.6-0.6H301l-0.6,0.6
			v4.9l0.7,0.7h0.7L302.4,258z"/>
		<path class="st2" d="M304.9,251.7h2.4l1.2,1.2v2l-0.6,0.7l0.8,0.8v2.1l-1.2,1.2h-2.6V251.7z M306.9,255.1l0.6-0.7v-1.2l-0.6-0.6
			h-1v2.5H306.9z M305.9,258.7h1.2l0.6-0.6v-1.3l-0.7-0.7h-1.1V258.7z"/>
		<path class="st2" d="M310.8,251.6h1.9l1.2,8h-1l-0.3-2.1h-1.7l-0.3,2.1h-1L310.8,251.6z M311.8,252.6h-0.2l-0.6,4h1.4L311.8,252.6
			z"/>
		<path class="st2" d="M318.6,252.9v2.9l-1.2,1.3h-1.5v2.6h-1v-8h2.5L318.6,252.9z M317,256.1l0.7-0.7v-2.1l-0.7-0.7h-1.1v3.4H317z"
			/>
		<path class="st2" d="M320.1,259.7v-8h1v3.5h1.8v-3.5h1v8h-1v-3.5h-1.8v3.5H320.1z"/>
		<path class="st2" d="M327.9,257h-0.8l-1.3,2.7h-1.1l1.4-3.1l-0.9-0.9v-2.8l1.2-1.2h2.4v8h-1V257z M327.9,252.6h-1l-0.7,0.7v2
			l0.7,0.7h1V252.6z"/>
	</g>
</g>
<g>
	<path class="st3" d="M120.7,466.4"/>
	<path d="M353.4,426.9c4.7-1.5,5.5-1.8,8.6-1.8c0.8,0,1.4,0.1,2,0.3c0.5,0.2,1,0.4,1.3,0.7l0.6-0.6l-0.8,0.3l12.7,31l0.8-0.3
		l0.6-0.6l-0.6,0.6l0.8-0.3l-12.7-31l-0.2-0.3c-0.6-0.6-1.3-0.9-2-1.2c-0.8-0.2-1.6-0.3-2.5-0.3c-3.6,0-4.5,0.6-9.3,2.1"/>
	<path d="M340.7,457.4L340.7,457.4c0.4,1.1,1.3,2,2.8,3.1c1.4,1,3.2,1.4,5.2,1.4c4,0,8.9-1.5,13.6-2.9c4.7-1.5,9.3-2.9,12.4-2.9
		c0.8,0,1.4,0.1,2,0.2c0.5,0.2,1,0.4,1.3,0.7c0.3,0.3,0.8,0.3,1.1,0.1c0.4-0.2,0.5-0.7,0.3-1.1l-0.8,0.3l0.6-0.6
		c-0.6-0.6-1.3-0.9-2-1.2c-0.8-0.2-1.6-0.3-2.5-0.3c-3.6,0-8.2,1.5-13,2.9c-4.7,1.4-9.5,2.9-13.1,2.9c-1.8,0-3.2-0.3-4.2-1.1
		c-1.3-0.9-1.9-1.7-2.2-2.3l0,0l-5.5-12.4"/>
	<path class="st0" d="M328.4,425.3"/>
	<path d="M348.5,412c0-0.3,0-0.5-0.1-0.8l-0.8,0.3l-0.8,0.3l12.7,31l0.8-0.3l-0.8,0.3l0,0.2c0,0.1,0,0.3-0.2,0.6
		c-0.3,0.4-0.8,1-1.6,1.5c-0.8,0.6-2,1.2-3.4,1.9c-3.2,1.5-6.5,2.8-9.1,4.1c-1.3,0.7-2.4,1.4-3.3,2.2c-0.4,0.4-0.8,0.8-1,1.3
		c-0.3,0.5-0.4,1-0.4,1.6c0,0.4,0.1,0.8,0.3,1.3c0.1,0.2,0.3,0.4,0.5,0.5c0.2,0.1,0.5,0.1,0.7,0c0.2-0.1,0.4-0.3,0.5-0.5
		c0.1-0.2,0.1-0.5,0-0.7l-5.4-13.2h-0.8l0.3,0.8l-1.4-0.7l5.7,13.8c0.2,0.5,0.7,0.7,1.2,0.5c0.5-0.2,0.7-0.7,0.5-1.1
		c-0.1-0.2-0.1-0.4-0.1-0.6c0-0.2,0.1-0.5,0.2-0.7c0.2-0.5,0.8-1,1.6-1.6c1.2-0.8,2.9-1.7,4.8-2.5c1.9-0.9,4.1-1.8,6.2-2.8
		c2-0.9,3.5-1.8,4.5-2.7c0.5-0.4,0.9-0.9,1.2-1.4c0.3-0.5,0.5-1,0.5-1.5c0-0.3,0-0.5-0.1-0.8l0,0l-12.7-31c-0.2-0.4-0.7-0.7-1.1-0.5
		c-0.5,0.2-0.7,0.7-0.5,1.1l0,0.2"/>
	<path d="M227.2,445.5c-0.5-0.2,0.6-1.5,0.4-1l-6.1,12.2v0c-0.2,0.6-0.9,1.4-2.2,2.3c-1,0.7-2.4,1.1-4.2,1.1
		c-3.6,0-8.4-1.4-13.1-2.9c-4.7-1.4-9.4-2.9-13-2.9c-0.9,0-1.7,0.1-2.5,0.3c-0.8,0.2-1.5,0.6-2,1.2l0.6,0.6l0.8,0.3l-0.8-0.3
		l0.6,0.6c0.3-0.3,0.7-0.6,1.3-0.7c0.5-0.2,1.2-0.2,2-0.2c3.1,0,7.7,1.4,12.4,2.9c4.8,1.4,9.6,2.9,13.6,2.9c2,0,3.8-0.4,5.2-1.4
		c1.4-1,2.3-2,2.8-3.1l0,0"/>
	<path d="M211.1,425.3c-4.7-1.4-5.6-2-9.2-2c-0.9,0-1.7,0.1-2.5,0.3c-0.8,0.2-1.5,0.6-2,1.2l-0.2,0.3l-12.7,31
		c-0.2,0.4,0,0.8,0.3,1.1c0.4,0.2,0.8,0.2,1.1-0.1l-0.6-0.6l0.8,0.3l12.7-31l-0.8-0.3l0.6,0.6c0.3-0.3,0.7-0.6,1.3-0.7
		c0.5-0.2,1.2-0.3,2-0.3c3.1,0,3.7,0.3,8.5,1.7"/>
	<path class="st0" d="M217.1,412"/>
	<path d="M215.5,411.2l-12.7,31l0,0c-0.1,0.2-0.1,0.5-0.1,0.8c0,0.5,0.2,1.1,0.5,1.5c0.4,0.7,1.2,1.4,2.1,2.1c1,0.7,2.2,1.4,3.7,2
		c3.3,1.5,6.6,2.8,9,4.1c1.2,0.6,2.2,1.3,2.9,1.9c0.3,0.3,0.6,0.6,0.7,0.9c0.1,0.3,0.2,0.5,0.2,0.7c0,0.2,0,0.4-0.1,0.6
		c-0.2,0.5,0,1,0.5,1.2c0.5,0.2,1,0,1.2-0.5l5.4-12.7L228,444l-0.1,0.5l-1-0.9l-5.4,13.2c-0.1,0.2-0.1,0.5,0,0.7
		c0.1,0.2,0.3,0.4,0.5,0.5c0.2,0.1,0.5,0.1,0.7,0c0.2-0.1,0.4-0.3,0.5-0.5c0.2-0.4,0.3-0.8,0.3-1.3c0-0.6-0.2-1.1-0.4-1.6
		c-0.5-0.8-1.2-1.5-2.1-2.2c-1.4-1-3.1-1.8-5.1-2.7c-2-0.9-4.1-1.8-6.2-2.8c-1.9-0.9-3.3-1.7-4.1-2.5c-0.4-0.4-0.7-0.7-0.9-1
		c-0.2-0.3-0.2-0.5-0.2-0.6l0-0.2l-0.8-0.3l0.8,0.3"/>
	<path class="st1" d="M347.2,413.1l-0.5-1.2l0,0c0-0.1-0.1-0.3-0.4-0.4c-0.2-0.2-0.6-0.4-1.2-0.5c-1.1-0.3-2.7-0.5-4.7-0.5
		c-0.4,0-0.8,0-1.2,0c-2.1,0.1-5.2,0.6-9,1.3c-3.8,0.7-8.2,1.6-13.2,2.5c-10,1.8-22.3,3.6-35.6,3.6c-20.2,0-37.1-4-48-6.1
		c-3.6-0.7-6.6-1.2-8.8-1.3c-0.4,0-0.8,0-1.2,0c-1.5,0-2.8,0.1-3.8,0.3c-1,0.2-1.7,0.5-2.1,0.7c-0.3,0.2-0.3,0.3-0.4,0.4l0,0
		l-0.5,1.2c0.7,1.1,2.5,2.4,5.4,3.7c7.1,3.3,14.6,5.6,13.1,9.3l-7.1,17.2c2,0.5,4.1,1.1,6.4,1.6c10.9,2.5,26,5,46.9,5
		c24.9,0,42.4-3.8,54.4-6.8l-7-17"/>
	<path d="M359.5,442.8L359.5,442.8L359.5,442.8c-0.1-0.1-0.1-0.3-0.4-0.5c-0.3-0.2-0.6-0.4-1.2-0.5c-1.1-0.3-2.7-0.5-4.7-0.5
		c-0.4,0-0.8,0-1.2,0c-2.1,0.1-5.1,0.7-9,1.7c-2,0.5-4.2,1.1-6.6,1.7l5.1,12.4c-1.5-3.7,6-6,13.1-9.3c3.5-1.6,5.3-3.2,5.7-4.4
		C360,443.4,359.6,443.2,359.5,442.8z"/>
	<path d="M211.9,441.3c-0.4,0-0.8,0-1.2,0c-1.5,0-2.8,0.1-3.8,0.3c-1,0.2-1.7,0.5-2.1,0.7c-0.3,0.2-0.3,0.3-0.4,0.4h0l0,0
		c-0.1,0.3-0.5,0.5-0.8,0.5c0.3,1.3,2.2,2.8,5.7,4.4c7.1,3.3,14.6,5.6,13.1,9.3l5-12.2c-2.6-0.7-4.9-1.3-6.9-1.9
		C216.8,442.1,214,441.4,211.9,441.3z"/>
	<path d="M361.1,442.2C361.1,442.2,361.1,442.2,361.1,442.2L361.1,442.2l-12.8-31l0,0c-0.2-0.5-0.6-0.9-1-1.2
		c-0.7-0.5-1.6-0.8-2.8-1c-1.1-0.2-2.5-0.3-4.2-0.3c-0.4,0-0.8,0-1.3,0c-2.3,0.1-5.4,0.6-9.2,1.3c-11.3,2.1-28.7,6-48.5,6
		c-13.3,0-25.2-1.7-34.9-3.5c-4.9-0.9-9.2-1.8-12.8-2.5c-3.7-0.7-6.7-1.2-9-1.3c-0.4,0-0.9,0-1.3,0c-2.2,0-3.9,0.2-5.2,0.6
		c-0.7,0.2-1.2,0.5-1.7,0.8c-0.5,0.3-0.8,0.7-1,1.2l0,0l-12.7,31l0,0c0,0,0,0,0,0c-0.2,0.5,0.1,1,0.5,1.1c0.1,0,0.2,0,0.3,0.1
		c0.4,0,0.7-0.2,0.8-0.5l0,0h0c0-0.1,0.1-0.3,0.4-0.4c0.4-0.3,1.1-0.6,2.1-0.7c1-0.2,2.3-0.3,3.8-0.3c0.4,0,0.8,0,1.2,0
		c2.1,0.1,4.9,0.7,8.5,1.7c2,0.5,4.3,1.2,6.9,1.9c11.3,3,28.3,6.7,54,6.7c20.2,0,35.7-2.5,47.2-5.1c2.9-0.6,5.5-1.3,7.8-1.9
		c2.4-0.6,4.6-1.2,6.6-1.7c3.9-1,6.9-1.6,9-1.7c0.4,0,0.8,0,1.2,0c2.1,0,3.7,0.2,4.7,0.5c0.5,0.2,0.9,0.3,1.2,0.5
		c0.3,0.2,0.3,0.3,0.4,0.4h0l0,0c0.1,0.3,0.5,0.5,0.8,0.5c0.1,0,0.2,0,0.3-0.1C361.1,443.1,361.3,442.6,361.1,442.2z M357.3,439.9
		c-1.1-0.2-2.5-0.3-4.2-0.3c-0.4,0-0.8,0-1.3,0c-2.4,0.1-5.4,0.8-9.3,1.8c-2,0.5-4.3,1.1-6.8,1.7c-12,3-29.5,6.8-54.4,6.8
		c-20.9,0-35.9-2.5-46.9-5c-2.3-0.5-4.5-1.1-6.4-1.6c-2.7-0.7-5.1-1.4-7.2-1.9c-3.7-1-6.5-1.7-8.9-1.8c-0.4,0-0.9,0-1.3,0
		c-2.1,0-3.9,0.2-5.2,0.6l11.1-27l0.5-1.2l0,0c0-0.1,0.1-0.3,0.4-0.4c0.4-0.3,1.1-0.6,2.1-0.7c1-0.2,2.3-0.3,3.8-0.3
		c0.4,0,0.8,0,1.2,0c2.1,0.1,5.1,0.6,8.8,1.3c10.9,2.1,27.9,6.1,48,6.1c13.4,0,25.6-1.8,35.6-3.6c5-0.9,9.5-1.8,13.2-2.5
		c3.7-0.7,6.8-1.2,9-1.3c0.4,0,0.8,0,1.2,0c2.1,0,3.7,0.2,4.7,0.5c0.5,0.2,0.9,0.3,1.2,0.5c0.3,0.2,0.3,0.3,0.4,0.4l0,0l0.5,1.2
		l11.1,27C358,440,357.7,439.9,357.3,439.9z"/>
	<polygon points="254.7,419 251.9,440 249.6,439.7 249.4,441.2 259.9,442.6 260.1,441.1 257.2,440.7 260,419.7 262.8,420 263,418.6 
		239.2,415.5 239,416.9 241.8,417.3 239.1,438.3 236.2,438 236,439.4 246.5,440.8 246.7,439.4 244.4,439 247.1,418 	"/>
	<path d="M278.3,428.9c-0.3,0-0.7-0.2-1.3-0.6c-1.8-1.2-3.5-1.9-5.1-1.9c-1.6-0.1-3,0.4-4.1,1.2c-1.1,0.9-2,1.9-2.6,3.2
		c-0.6,1.3-0.9,2.5-1,3.6l0,1.2c0,2.1,0.5,3.8,1.4,5c0.9,1.3,2,2.1,3.2,2.6c1.2,0.5,2.5,0.8,3.7,0.8c2.5,0.1,4.6-0.7,6.3-2.4
		l-0.6-0.7c-1.7,1.1-3.2,1.7-4.5,1.6c-1.5-0.1-2.6-0.7-3.4-1.9c-0.8-1.2-1.2-2.7-1.1-4.5c0.8-0.6,1.6-0.9,2.3-0.9
		c0.4,0,0.8,0.1,1.1,0.3c0.3,0.2,0.8,0.5,1.4,0.9c0.6,0.4,1.1,0.6,1.6,0.6c0.4,0,0.7,0,0.9-0.1c0.2-0.1,0.5-0.3,0.9-0.6
		c0.7-0.5,1.4-1.1,2-1.7l-0.7-1c-0.4,0.4-0.9,0.5-1.3,0.5c-0.2,0-0.6-0.2-1-0.5c-0.5-0.3-0.9-0.5-1.3-0.7c-0.4-0.1-0.8-0.2-1.2-0.2
		c-0.6,0-1.4,0.2-2.3,0.6c-1,0.4-1.7,0.8-2.3,1.2c0.1-2,0.4-3.7,0.7-5c0.4-1.3,1.1-2,2.2-1.9c0.3,0,0.6,0.1,0.8,0.3
		c0.2,0.2,0.5,0.5,0.9,1c1,1.2,2,1.9,2.9,1.9c0.9,0,2-0.3,3.3-1.1l-0.9-1.1C278.9,428.9,278.6,429,278.3,428.9z"/>
	<path d="M291.3,428.7c0.4,0.5,0.6,1.2,0.6,2.1c0,0.3,0,0.9-0.2,1.8l1.5,0.1c0.1-0.2,0.2-0.6,0.3-1c0.1-0.5,0.3-1,0.5-1.5
		c0.2-0.4,0.4-0.9,0.6-1.4c0.4-0.7,0.5-1.2,0.5-1.5c0-0.3-0.2-0.5-0.4-0.6c-0.3-0.1-0.7-0.1-1.2-0.1c-2.5,0.2-4.6,0.3-6.2,0.4
		c-1.2,0-2,0-2.5,0c-0.3,0-0.8,0-1.4,0c-0.4,0-0.6,0.2-0.8,0.4c-0.2,0.3-0.3,0.9-0.3,1.9c0,1,0,2.5,0,4.7c0.1,2.2,0.2,3.9,0.2,5.1
		c0.1,1.2,0.2,2.1,0.3,2.6c0.1,0.6,0.2,1,0.4,1.1c0.2,0.2,0.4,0.3,0.7,0.2l2.1-0.1c0.6,0,1-0.1,1.2-0.3c0.1-0.2,0.2-0.4,0.2-0.8
		c0-0.3-0.1-0.9-0.2-1.8c-0.1-0.9-0.3-1.8-0.4-2.8c-0.1-1-0.2-2.2-0.2-3.7c-0.1-1.9,0-3.8,0.2-5.6l2.1-0.1
		C290.1,428,290.9,428.2,291.3,428.7z"/>
	<path d="M304.5,431c0.1,0.3,0.3,0.8,0.6,1.5c0.5,1.2,0.8,2.1,0.8,2.4c0,0.4,0,0.8-0.2,1.2c-0.2,0.5-0.5,0.9-0.9,1.2
		c-0.4,0.4-0.9,0.6-1.5,0.6c-0.7,0.1-1.2-0.1-1.6-0.6c-0.4-0.5-0.6-1-0.7-1.6c-0.1-0.6,0.1-1.4,0.5-2.6c0.4-1.1,1.1-2.5,2.3-4.1
		C304.1,429.8,304.3,430.4,304.5,431z M302.5,426.1c0,0.2,0.1,0.5,0.2,0.7c0.2,0.5,0.3,0.9,0.4,1.1c0,0.2,0,0.4-0.2,0.6
		c-0.1,0.2-0.4,0.5-0.7,1c-0.4,0.4-0.7,0.9-0.9,1.3c-0.6,0.8-1,1.5-1.3,1.9c-0.3,0.4-0.6,1-1,1.7c-0.4,0.7-0.7,1.4-0.9,2.2
		c-0.2,0.7-0.3,1.4-0.2,2c0.1,0.6,0.3,1.3,0.5,2c0.3,0.7,0.7,1.2,1.3,1.6c0.6,0.4,1.3,0.6,2.2,0.5c2.5-0.3,4.1-2.3,4.8-6.1
		c0.2,0.5,0.4,1,0.6,1.5c0.2,0.6,0.4,1,0.5,1.3c0.3,0.8,0.5,1.4,0.6,1.7c0.1,0.4,0.3,0.5,0.4,0.5l3.5-0.4c0.5,0,0.7-0.2,0.7-0.4
		c0-0.2-0.2-0.6-0.6-1.3c-0.4-0.7-0.9-1.7-1.5-3.1c-0.6-1.4-1.4-3.4-2.4-6.2c-0.2-0.5-0.3-0.8-0.4-1c-0.1-0.4-0.2-0.7-0.4-1
		c-0.1-0.3-0.2-0.6-0.4-0.9c-0.1-0.3-0.2-0.5-0.2-0.7c0-0.2-0.1-0.4-0.1-0.5c0-0.1,0-0.3-0.1-0.4c-0.1-0.1-0.2-0.2-0.4-0.2l-3.5,0.4
		C302.7,425.9,302.5,426,302.5,426.1z"/>
	<path d="M325.3,433.5c-0.1,0.1-0.1,0.3-0.1,0.3c-0.3,0.8-0.7,1.5-1.1,2.1c-0.9-0.2-1.8-0.6-2.7-1.4c-0.9-0.7-1.7-1.6-2.4-2.6
		c-0.7-1-1.1-2.1-1.3-3.1c-0.2-1.2-0.2-2.2,0.1-3.1c1.1,0,2,0.2,2.6,0.6c0.7,0.3,1.3,0.8,1.8,1.3c0.5,0.4,0.7,0.6,0.8,0.6
		c0.1,0,0.2-0.1,0.2-0.4c0.1-0.2,0.2-0.5,0.3-0.7c0.1-0.2,0.3-0.6,0.6-1.1c0.5-0.8,0.8-1.3,0.7-1.5c0-0.3-0.3-0.6-0.9-0.8
		c-0.5-0.3-1.2-0.5-1.9-0.7c-0.7-0.2-1.4-0.4-2-0.5c-0.6-0.1-1.1-0.2-1.2-0.1c-0.6,0.1-1.2,0.7-2,1.8c-0.7,1.1-1.3,2.4-1.7,3.8
		c-0.4,1.5-0.5,2.9-0.3,4.1c0.2,0.9,0.5,1.9,1.1,2.9c0.6,1,1.3,2,2.1,2.8c0.8,0.9,1.6,1.5,2.4,2c0.8,0.5,1.4,0.7,1.9,0.6
		c0.7-0.1,1.5-0.9,2.4-2.2c0.9-1.3,1.6-2.9,2-4.6l-1.3-0.7C325.4,433.2,325.3,433.4,325.3,433.5z"/>
	<g>
		<path d="M333.8,285.6h3.7c-2,1-4.1,1.6-6.1,2.4c-6.2,2.3-12.5,5-17.7,9.2c-0.9,0.7-0.6,2.1-0.6,3.1c5.5-2.8,10.8-5.8,16.4-8.3
			c3.8-1.6,7.9-3.4,12.1-2.4c-4.3,1.6-8.9,2.6-13.1,4.6c-5.3,2.4-10.6,4.7-15.5,7.8c-0.9,0.9-1.2,2.2-1.8,3.3
			c5.9-3.3,12.1-5.8,18.4-8.3c0.1-0.6,0.2-1.1,0.3-1.7c0.1,0.4,0.2,1.1,0.2,1.5c3.5-1.2,7-2.5,10.6-3.1c1-0.2,2.1-0.1,3.1,0.1
			c-4.5,1.6-9.1,3-13.5,4.7c0,2.7-0.5,5.4-1.4,8c-2.2,6.2-6.9,11.1-12.4,14.5c-4.2,2.7-8.9,4.3-13.4,6.4c-8.7,4.4-16,11-22.5,18.1
			c-1.2,1.5-2.1,3.2-3.1,4.8c-0.3-1-0.8-2-0.4-3.1c2-8,5.5-15.7,10.7-22.1c0.4-0.5,0.9-1.1,0.6-1.7c-1.3-3.6,0.4-7.7,3-10.3
			c6.3-6.5,13.3-12.2,20.8-17.2C319,291.6,326.1,287.8,333.8,285.6z M300.4,315.1c-5.7,5.6-11.4,11.3-15.9,17.9
			c-2,3.1-3.7,6.4-4.2,10c2.3-5.4,6.4-9.8,11.3-13.1c8.9-6.2,19.4-9.7,28.1-16.2c4.9-3.6,8.8-8.8,9.9-14.8
			C319.1,303,309.3,308.4,300.4,315.1z M306.5,302.9c-1.5,2.1-3,4.6-2.3,7.3c1.9-1.5,3.8-3,5.2-5.1c1.1-1.7,1.6-3.7,1.7-5.7
			C309,299.6,307.7,301.4,306.5,302.9z M297.3,309.7c-1.6,1.9-1.1,4.6-1.4,6.8c1.4-0.9,2.8-1.9,3.8-3.2c1.7-2.1,2.3-4.9,2.5-7.6
			C300.5,306.8,298.6,308,297.3,309.7z M291.9,314.7c-1.6,2.2-2.7,5-2.3,7.7c0.6-0.3,1.4-0.5,1.8-1.2c1.4-2.3,2.3-5,2.3-7.7
			C293,313.9,292.3,314.2,291.9,314.7z"/>
		<path d="M406.2,294.5c0.4-1.4,0.3-2.9,1.1-4.2c-0.2,5.5-2.3,10.9-5.3,15.5c-4.2,6.4-10.1,11.5-16.5,15.8c-5.8,4-12.3,6.7-18.9,9
			c-4.2,1.5-8.4,2.8-12.7,4.1l0,0.1c13-2.7,25.9-7,37.6-13.5c1.6-0.9,3.1-2.1,4.8-2.9c0.6,0.8-0.6,1.4-1,2.1
			c-10.7,11.9-24.6,20.6-39.4,26.5c-14.1,5.8-29.4,7.6-44.3,10.3c-5,1-9.9,2.5-14.7,4.1c-4.6,1.4-9.5,3.4-12.2,7.6
			c0,0.6,0,1.2-0.1,1.8c-2.5,1.5-5.2,2.8-7.4,4.6c-3.1,2.3-6.1,4.8-8.4,7.9c-1.6,2.2-2.7,4.8-2.6,7.5c0.1,3.4,2,6.9,5.1,8.5
			c3.5,1.7,7.5,1.4,11.2,0.4c0-0.2,0.1-0.5,0.2-0.6c0,0.5,0,1,0,1.5c-2.2,0.9-4.6,0.9-6.9,1.2c-4.9,0.4-10.4-2-12.4-6.7
			c-1-2.9-1.9-5.9-1.5-8.9c0.4-2.5,0.4-5,0.9-7.4c1.4-8.6,5.9-16.5,11.8-23c5.5-6.1,12.2-11.1,19.3-15.2c1.8-1.1,3.7-1.8,5.3-3.2
			c5.3-4.4,11-8.3,17.1-11.5c0.5-3.5,3.6-5.9,6.5-7.4c13.6-5.2,28-8.5,42.6-9.1c1.6-2.4,2.6-5.2,3.9-7.8c-0.3,2.7-1.6,5.2-2.6,7.8
			c2.3,0.1,4.7,0.1,7,0.4c1,0.1,1.9,0.7,2.7,1.3c-3.5-0.1-7-0.3-10.4-0.3c-0.5,0.9-1,1.8-1.5,2.7c3.5-0.1,7-0.2,10.4,0.6
			c1.2,0.2,2.2,0.8,3.2,1.4c-4.9-0.2-9.7-1-14.6-0.6c-0.6,0.8-1.3,1.7-1.9,2.6c3.9,0.1,7.9,0.2,11.8,0.7c1.6,0.2,3.2,0.5,4.4,1.5
			c-5.9-0.3-11.8-0.8-17.6-0.6c-2.7,2.6-5.7,5-9.1,6.9c-6.9,4.1-14.7,6.3-22.4,8.2c-7.8,1.9-15.7,3.6-23.3,6
			c-7.6,2.3-15.1,5.7-21.3,10.8c-1.8,1.5-3.9,2.9-5.2,4.9c0.8-0.2,1.7-0.4,2.5-0.7c4.5-2,8.8-4.3,13.4-6c6.7-2.6,13.6-4.6,20.5-6.3
			c2.7-0.7,5.5-1.1,8.1-2.1c8.1-3,16.4-5.5,24.6-7.8c7.2-2,14.3-4.2,21.3-6.8c8.2-3.2,16.3-6.7,23.3-12
			C399.2,309.2,404.4,302.4,406.2,294.5z M352.5,311.8c-0.8,0.2-1.7,0.2-2.3,0.7c-0.6,0.6-0.9,1.3-1.4,2c4.4-0.4,8.8-0.7,13.2-1.1
			c0.9-0.9,1.7-1.8,2.5-2.8C360.4,310.6,356.4,311,352.5,311.8z M340,315.5c-1.6,1-3.2,2.2-3.7,4.1c4.3-0.9,8.9-2.6,11.3-6.6
			C344.8,312.8,342.3,314.2,340,315.5z M348.6,315.7c-1.5,0.2-2.6,1.4-3.7,2.2c3.9-0.5,7.8-0.4,11.7-0.7c1.4-0.5,2.5-1.5,3.6-2.4
			C356.3,315,352.5,315.2,348.6,315.7z M329.4,317.8c-1.3,1.2-2.2,2.8-3.2,4.2c4.4-0.3,8.3-2.9,10.7-6.6
			C334.3,315.7,331.6,316.2,329.4,317.8z M323.6,319.3c-2.3,1.3-4.5,3-5.7,5.4c0.7-0.1,1.5,0,2.2-0.4c2.3-1.4,4.3-3.2,5.7-5.4
			C325,318.9,324.2,318.9,323.6,319.3z M330.5,322.3c-5.5,1.9-11,3.8-16.2,6.4c-3.9,1.6-7.4,4.2-10.7,6.7c8.5-3.4,17.4-5.4,26.2-7.6
			c8.2-2,16.3-4.6,23.7-8.8C345.8,319.6,338.1,320.6,330.5,322.3z M283.7,360.8c-4.6,2.1-9.1,4.7-12.3,8.7
			c-2.3,2.8-3.4,6.5-2.8,10.1c0.4-2.9,1.7-5.6,3.7-7.7c4.4-5,10.3-8.3,16.2-11.3c4.7-2.3,9.6-4.3,14.6-5.9
			C296.5,356.1,289.9,358,283.7,360.8z"/>
		<path d="M214.3,331.5c3.8-3.6,9.4-5,14.5-4.2c-1.8,1.9-4.4,2.9-6,5c2.7,0.4,5.5,1.2,7.8,2.8c1,0.8,1.9,1.9,1.8,3.2
			c-1.6,0-2.9-1-4.3-1.5c-3.7-1.2-7.7-0.1-10.9,1.8c-4.3,2.5-8,6.2-10.4,10.5c1.4,3,2.4,6.4,2.3,9.8c0.1,2.9-0.6,5.7-0.7,8.6
			c1.3,1.5,2.6,3,4,4.5c0.5,0.6,1.3,1.2,2.2,0.8c1.7-0.7,2-2.7,2.1-4.3c-0.5-0.4-2.3-0.6-1.5-1.5c3.2-3.1,5.9-7.3,5.9-12
			c0-2-1.5-3.6-3.3-4c0-1.6-0.1-3.1-0.1-4.7c2.9,1.5,5.7,3.6,6.8,6.7c1,2.7,0.3,5.7-1.2,8.1c-1.3,2.3-3.3,4.1-5.4,5.7
			c0.3,0.5,0.9,0.8,1.4,1.2c-1.5,3.3-2.9,6.5-4.4,9.8c-3.2-2.9-6.6-5.7-9.7-8.7c-0.1-3,0.5-6,0.6-9.1c0.2-3.3-0.5-6.5-1.7-9.6
			c-2.1-1.8-4.9-2.8-6.9-4.9c2.9-0.1,5.9,0,8.7-0.9C208.1,339.9,210.4,335,214.3,331.5z"/>
		<path d="M226.9,331.8c7.6-2.8,16-1.8,23.4,1.1c7.3,3,13.9,7.5,19.2,13.3c1.3,1.6,2.9,3.2,3,5.4c-0.8,0.1-1.8-0.1-2.5,0.5
			c-0.9,0.8-1.6,1.8-2.2,2.8c-2.8,4.8-4.5,10-6.5,15.2c1.5-5.2,1-10.9-1-15.9c-3-7.9-9.3-14.6-17.3-17.6c-3.5-1.3-7.2-1.8-10.9-1.6
			C231.1,333,229,332.1,226.9,331.8z"/>
		<path d="M235.7,339.3c1,1.8,0.6,4.1-0.5,5.8C235.7,343.2,235.9,341.2,235.7,339.3z"/>
		<path d="M238.9,339.4c1.7,2.6,0.4,5.8-0.9,8.2C238.8,345,239.3,342.2,238.9,339.4z"/>
		<path d="M242.3,340.5c1.7,3.2,0,6.9-1.6,9.8C241.7,347.1,242.4,343.8,242.3,340.5z"/>
		<path d="M245.5,342.3c1.7,3.8-0.5,7.7-2.1,11.1C244.4,349.8,245.3,346.1,245.5,342.3z"/>
		<path d="M382.9,344.4c0.4-0.2,0.9-0.3,1.4-0.1c-10.1,9.6-23.2,15.6-36.4,19.5c-7.8,2.4-15.8,3.9-23.9,5.1c0.2,0.6,0.4,1.2,0.6,1.9
			c9.9-0.2,19.8-0.9,29.4-3.7c1.7-0.4,3.3-1.4,5-1.5c-4.7,4.2-10.5,7-16.4,9.2c-5.8,2.1-11.9,3.5-18,4.3c-0.3,1.1-0.7,2.1-1.1,3.2
			c5.8,0.9,11.8,2.7,16,7.1c2.4,2.5,4.7,5.9,4.1,9.6c-0.3,2.4-2.1,4.5-4.5,5c1-0.9,2.5-1.5,3.1-2.9c1.2-2.3,0.1-5-1.5-6.8
			c-2-2.3-4.9-3.7-7.9-4.2c-4.4-0.9-8.9-0.9-13.4-0.5c-1.2,0-1.7,1.1-2.5,1.7c-6.1,5.4-14.1,9-22.3,8.7c-7.7-0.2-15.7-4.1-19.5-11.1
			c-1-2.2-2.7-4.1-4.2-5.9c0.9-1,1.6-2.1,2.5-3c6.6-5.6,14.4-9.7,22.6-12.2c5-1.6,10-2.8,15.1-3.8c3.9-0.5,7.8-0.6,11.7-1
			c4.2-0.4,8.4,0.2,12.5,0.1c-2.3-1.3-5-1.2-7.5-1.3c-6.7,0.1-13.4,0.7-20.1,1.4c0.8-0.5,1.5-1.2,2.3-1.8c2.3-0.7,4.6-0.9,7-1.1
			c3-0.3,5.9-0.6,8.9-0.8c3.1-0.1,6.2,0.2,9.4,0.1c-1.7-1.1-3.9-0.8-5.8-1c-6.2,0.5-12.5,0.7-18.7,1.5c0.5-0.8,0.9-1.9,2-2
			c6.8-1.9,14-1.9,21-2c6.3-0.8,12.7-1.7,19-2.5C363.1,351.6,373.4,349.1,382.9,344.4z M307.7,370.7c5.2,0.1,10.4,0,15.7,0
			c-0.1-0.6-0.2-1.1-0.3-1.7C317.9,369.6,312.8,370.3,307.7,370.7z M285.2,380.6c-4,0.1-8,0.9-11.8,2.1c1.8-0.2,3.4,0.8,5.1,1.2
			c4.2,1.1,8.6,1.4,12.9,0.9c9.2-1,18.3-3.3,27.6-3c0.6-0.7,1.1-1.5,1.7-2.2C308.9,380.7,297,380.4,285.2,380.6z M279.4,392.6
			c3.1,2.3,7.1,3.2,10.9,3c5.7-0.1,11.4-1.8,16.4-4.4c-3,0.2-6,0.8-9.1,0.6c-8.6-0.2-17.5-2.2-24.3-7.7
			C274.6,387.3,276.5,390.5,279.4,392.6z"/>
		<path d="M248.6,344.6c0.7,1.7,0.6,3.6,0.1,5.4c-0.6,2.5-1.8,4.8-3,7C247.1,353,248,348.8,248.6,344.6z"/>
		<path d="M250.1,353.4c0.5-1.9,0.6-3.9,1.3-5.7c1.5,4.9-1.3,9.8-3.7,14C248.6,358.9,249.5,356.2,250.1,353.4z"/>
		<path d="M226.2,350.8c4.1,1.3,7.5,4.6,8.8,8.7c2.2,6.2,0,13.4-4.7,17.8c-1.2,1.3-2.9,2-3.8,3.6c-2.5,3.6-5,7.9-4.3,12.5
			c0.2,1.5,1.4,2.6,2.1,3.9c-0.3,1.4-0.9,2.7-1.4,4c-2.8-1.5-4.3-4.8-4.2-7.9c0.2-5.9,3.7-11.3,8.5-14.6c2.7-2,4.8-4.9,5.5-8.3
			c1-3.7,1-8-1-11.4c-1.1-1.8-2.7-3-4.5-4C226.8,353.8,226.5,352.3,226.2,350.8z"/>
		<path d="M253.9,351.1c0.4,1.3,0.6,2.6,0.4,3.9c-0.5,4.1-2.7,7.7-4.7,11.3C251.5,361.3,252.7,356.2,253.9,351.1z"/>
		<path d="M256.4,355.3c1.4,5.7-2.1,10.9-4.9,15.6C253.5,365.8,254.8,360.5,256.4,355.3z"/>
		<path d="M303.5,361.2c1.8-1.2,3.9-2.2,6.2-2.1c-1,1.6-2.3,3-3.9,4.1c-1.5,1.1-3.4,1.3-5.1,1.7
			C300.8,363.2,302.2,362.1,303.5,361.2z"/>
		<path d="M257.1,364.5c0.5-1.6,0.9-3.2,1.7-4.7c1.2,6.2-2.6,11.7-5.8,16.6C254.5,372.5,255.9,368.5,257.1,364.5z"/>
		<path d="M295.7,363.1c1.5-1,3.2-1.4,4.9-2c-0.9,3.6-4.5,5.7-8,6.1C293.5,365.8,294.2,364.1,295.7,363.1z"/>
		<path d="M290.4,365.2c0.6-0.4,1.3-0.5,2-0.6c-1.2,2.6-3.6,4.9-6.6,5.2C287.2,368.1,288.7,366.5,290.4,365.2z"/>
		<path d="M167.1,369.6c6.2,1,11.7,6.6,11.4,13C172.6,381.2,166.8,376.1,167.1,369.6z"/>
		<path d="M167,382.6c6.4-0.8,14.3,2.2,16.9,8.4c-1.4,0-4.1-0.1-5.4-0.1C173.5,390.9,168.5,387.5,167,382.6z"/>
		<path d="M180.8,375.6c6.1,2.6,9.2,10,6.9,16.2C182.6,388.6,178.3,381.7,180.8,375.6z"/>
		<path d="M190.3,384.9c5.3,2.5,7.8,9.1,5.6,14.5C191.5,396.4,187.9,390.2,190.3,384.9z"/>
		<path d="M173,393.6c5.7-2.5,13.8-2,18,3c-1.3,0.4-3.8,1.1-5,1.5C181.4,399.4,175.8,397.7,173,393.6z"/>
		<path d="M184.3,400.1c6-1.4,13.6,0.6,16.7,6.2c-1.3,0.1-3.8,0.4-5.1,0.5C191.3,407.3,186.3,404.5,184.3,400.1z"/>
		<path d="M198.3,393.3c6.4,1.7,10.5,8.6,9.1,15.1C201.9,405.9,196.6,399.7,198.3,393.3z"/>
		<path d="M396.8,367.5c-6.2,1-11.7,6.6-11.4,13C391.3,379.1,397.1,374,396.8,367.5z"/>
		<path d="M396.9,380.5c-6.4-0.8-14.3,2.2-16.9,8.4c1.4,0,4.1-0.1,5.4-0.1C390.4,388.8,395.4,385.4,396.9,380.5z"/>
		<path d="M383.1,373.5c-6.1,2.6-9.2,10-6.9,16.2C381.3,386.5,385.6,379.6,383.1,373.5z"/>
		<path d="M373.6,382.8c-5.3,2.5-7.8,9.1-5.6,14.5C372.3,394.3,375.9,388.1,373.6,382.8z"/>
		<path d="M390.9,391.5c-5.7-2.6-13.8-2-18,3c1.3,0.4,3.8,1.1,5,1.5C382.5,397.3,388.1,395.6,390.9,391.5z"/>
		<path d="M379.5,398c-6-1.4-13.6,0.6-16.7,6.2c1.3,0.1,3.8,0.4,5.1,0.5C372.6,405.1,377.6,402.4,379.5,398z"/>
		<path d="M365.6,391.2c-6.4,1.7-10.5,8.6-9.1,15.1C362,403.8,367.2,397.6,365.6,391.2z"/>
	</g>
	<polygon points="233.8,477.5 277.3,476.6 277.2,478.5 	"/>
	<polygon points="283.2,477.5 282.1,478.6 281,477.5 282.1,476.4 	"/>
	<polygon points="330.1,477.5 286.6,476.6 286.7,478.5 	"/>
	<path d="M283.2,482.6c1.4-0.2,2.9-0.1,4.2,0.4c0,0.2,0,0.5,0,0.7c-0.6-0.3-1.1-0.6-1.8-0.8C284.9,482.8,284,483,283.2,482.6z"/>
	<path d="M276.3,483.1c1.1-0.9,2.8-0.7,4.1-0.5c-0.9,0.5-2,0.1-2.9,0.7C277.2,483.4,276.4,484,276.3,483.1z"/>
	<path d="M273.9,487.8c1-1.7,2.4-3.2,4.1-4.2c-0.2,0.7-0.6,1.3-0.4,2c0.3,1.3,1.1,2.3,1.7,3.4C277.5,489,275.7,488.5,273.9,487.8z"
		/>
	<path d="M279.4,483.6c1.5-0.5,3.2-0.4,4.7-0.1c1.1,0.2,1.6,1.4,1.2,2.4c-0.7,1.7-2,3.1-3.4,4.3c-1.5-1.1-2.7-2.6-3.4-4.4
		C278.2,485,278.5,483.9,279.4,483.6z"/>
	<path d="M285.8,483.4c1.8,0.8,3.1,2.5,4.1,4.1c-1.7,0.9-3.6,1.3-5.5,1.4c0.6-1,1.4-1.9,1.7-3C286.4,485.1,286.1,484.2,285.8,483.4z
		"/>
	<path d="M287.6,489.3c0.4-0.2,0.9-0.3,1.4-0.3c0.3,0.9,0.3,1.9,0.5,2.8c-0.9,0-1.8,0-2.7,0C287.1,491,287.2,490.1,287.6,489.3z"/>
	<path d="M274.3,491.7c0.1-0.9,0.3-1.8,0.5-2.7c0.5,0.2,1,0.4,1.5,0.5c0.2,0.8,0.4,1.5,0.6,2.3C276,491.8,275.1,491.7,274.3,491.7z"
		/>
	<path d="M277.1,489.7c1,0.1,1.9,0.1,2.9,0.1c0.5,0.5,1.1,0.9,1.7,1.3c-0.9,0.9-1.9,1.7-3.1,2.3C278,492.2,277.4,491,277.1,489.7z"
		/>
	<path d="M284,489.7c0.9,0,1.8-0.1,2.7-0.2c-0.4,1.3-0.7,2.6-1.6,3.7c-1.1-0.1-1.8-1.1-2.6-1.7C283,490.9,283.5,490.3,284,489.7z"/>
	<path d="M281.8,492.1c0.8,0.5,1.5,1.1,2.1,1.8c-0.5,1-1.3,1.9-2.1,2.7c-0.8-0.8-1.5-1.8-2.1-2.8
		C280.4,493.3,281.1,492.6,281.8,492.1z"/>
	<path d="M274.5,492.4c0.2,0,0.5,0,0.7,0c0,0.5,0,0.9,0,1.4c-0.2,0-0.6,0-0.7,0C274.5,493.4,274.5,492.9,274.5,492.4z"/>
	<path d="M288.6,492.4c0.1,0,0.4,0,0.6,0.1c0,0.5,0,1,0.1,1.5c-0.2,0-0.5,0-0.7,0C288.6,493.5,288.6,493,288.6,492.4z"/>
	<path d="M275.7,492.6c0.5,0,1,0,1.5-0.1c0.4,0.7,1,1.4,1.8,1.8c-0.9,0.3-1.9,0.6-2.9,0.8C275.9,494.2,275.8,493.4,275.7,492.6z"/>
	<path d="M286.4,492.6c0.5,0,1.1,0.1,1.6,0.1c-0.1,0.8-0.1,1.6-0.4,2.4c-1,0-1.9-0.4-2.8-0.8C285.6,493.9,286.1,493.3,286.4,492.6z"
		/>
	<path d="M277.7,495.5c0.6-0.2,1.1-0.4,1.7-0.6c0.5,0.7,1,1.4,1.6,2c-0.7,0.5-1.3,1-2.1,1.4C278.4,497.5,278,496.5,277.7,495.5z"/>
	<path d="M282.7,496.9c0.5-0.6,1.1-1.3,1.6-1.9c0.6,0.2,1.2,0.4,1.8,0.7c-0.3,1-0.7,1.9-1.3,2.8C283.9,498,283.3,497.5,282.7,496.9z
		"/>
	<path d="M276.4,495.4c1,0,0.9,1.2,1.3,1.9c-0.3,0.1-0.8,0.4-1.1,0.5C276.5,497,276.4,496.2,276.4,495.4z"/>
	<path d="M286.6,495.5c0.2,0.1,0.5,0.2,0.8,0.3c-0.1,0.7-0.2,1.3-0.3,2c-0.3-0.1-0.7-0.2-1-0.3C286.2,496.8,286.4,496.2,286.6,495.5
		z"/>
	<path d="M280,498.7c0.6-0.5,1.2-1,1.9-1.4c0.5,0.5,1.1,0.9,1.7,1.4c-0.5,0.9-0.9,2-1.8,2.5C280.9,500.5,280.5,499.6,280,498.7z"/>
	<path d="M242.2,484.5c0.5-0.3,0.7-0.8,0.7-1.5c0-0.2-0.1-0.4-0.3-0.6c-0.2-0.2-0.5-0.3-0.9-0.3c-0.5,0-0.8,0.1-1.1,0.4
		c-0.3,0.2-0.4,0.6-0.4,1c0,0.4,0.1,0.7,0.2,1c0.2,0.4,0.5,0.9,1,1.3l0.7,0.6c0.6,0.5,1,1,1.2,1.3c0.4,0.7,0.6,1.4,0.6,2.1
		c0,1.4-0.5,2.4-1.4,3.1c-0.8,0.7-1.9,1-3.2,1c-1.6,0-2.6-0.5-3.2-1.5c-0.2-0.4-0.3-0.8-0.3-1.2c0-0.9,0.2-1.5,0.7-2
		c0.5-0.5,1-0.7,1.6-0.7c0.6,0,1,0.2,1.3,0.5c0.1,0.1,0.2,0.3,0.2,0.5c-0.8,0-1.4,0.3-1.7,0.8c-0.1,0.2-0.2,0.4-0.2,0.7
		c0,0.5,0.1,0.8,0.4,1.2c0.3,0.3,0.7,0.5,1.2,0.5s1-0.2,1.3-0.6c0.4-0.4,0.5-0.9,0.5-1.4s-0.1-1.1-0.2-1.4c-0.2-0.4-0.4-0.7-0.6-1
		c-0.2-0.3-0.5-0.6-0.8-0.9c-0.3-0.3-0.6-0.6-0.8-0.9c-0.6-0.7-0.9-1.4-0.9-2c0-0.8,0.4-1.5,1.1-2.1c0.7-0.5,1.6-0.8,2.7-0.8
		c1.3,0,2.1,0.4,2.5,1.2c0.1,0.2,0.1,0.5,0.1,0.9s-0.1,0.7-0.4,1c-0.2,0.3-0.5,0.5-0.9,0.5C242.7,484.9,242.4,484.8,242.2,484.5z"/>
	<path d="M249.8,490.6c-0.7,2-1.9,3-3.5,3c-0.4,0-0.8-0.2-1.2-0.5c-0.3-0.3-0.5-0.8-0.5-1.5c0-0.3,0-0.7,0.1-1.1l1.1-5.2h2.3
		l-1.2,5.5c0,0.2-0.1,0.4-0.1,0.6c0,0.4,0.2,0.5,0.7,0.5c0.3,0,0.6-0.1,0.9-0.4c0.3-0.3,0.5-0.6,0.6-1H249.8z M248.7,483.2
		c0,0.4-0.1,0.7-0.4,0.9c-0.3,0.2-0.6,0.4-0.9,0.4s-0.7-0.1-0.9-0.4c-0.2-0.3-0.4-0.6-0.4-0.9c0-0.4,0.1-0.7,0.4-0.9
		c0.2-0.3,0.6-0.4,0.9-0.4s0.7,0.1,0.9,0.4C248.6,482.5,248.7,482.8,248.7,483.2z"/>
	<path d="M255.3,491.3c0,0.5,0.2,0.7,0.6,0.7c0.4,0,0.6-0.1,0.8-0.4c0.2-0.2,0.4-0.6,0.6-1.1h0.7c-0.6,1.8-1.5,2.8-2.6,3
		c-0.2,0-0.4,0-0.6,0c-0.3,0-0.5-0.1-0.7-0.2c-0.7-0.3-1-0.8-1-1.7c0-0.4,0.1-1.2,0.4-2.1c0.2-1,0.4-1.6,0.4-2
		c0-0.6-0.2-0.8-0.6-0.8c-0.4,0-0.7,0.3-1,0.9c-0.1,0.2-0.2,0.4-0.2,0.6l-1.1,5.2h-2.3l1.7-8.1h2.3l-0.2,0.8
		c0.5-0.6,1.2-0.9,1.9-0.9c0.5,0,1,0.1,1.3,0.4c0.3,0.3,0.5,0.7,0.5,1.3c0,0.6-0.1,1.2-0.3,1.9l-0.4,1.6
		C255.3,490.8,255.3,491.1,255.3,491.3z"/>
	<path d="M261.3,485.2c1.3,0,2,0.5,2,1.5c0,0.4-0.1,0.7-0.3,0.9c-0.2,0.2-0.4,0.3-0.6,0.3c-0.2,0-0.4-0.1-0.6-0.2
		c0.1-0.4,0.2-0.7,0.2-1c0-0.4-0.2-0.7-0.5-0.7c-0.3,0-0.6,0.3-1,0.8c-0.5,0.8-0.8,1.8-1,3c-0.1,0.4-0.1,0.7-0.1,1.2
		c0,0.8,0.4,1.2,1.1,1.2c0.6,0,1.1-0.1,1.6-0.4c0.4-0.3,0.9-0.7,1.4-1.2h0.6c-1.2,2-2.7,3-4.5,3c-0.8,0-1.4-0.2-1.9-0.6
		c-0.5-0.4-0.7-1.1-0.7-2c0-1.2,0.3-2.4,0.9-3.6c0.5-0.9,1.1-1.5,2-1.9C260.4,485.3,260.8,485.2,261.3,485.2z"/>
	<path d="M270.3,490.6c-1.2,2-2.7,3-4.5,3c-0.8,0-1.4-0.2-1.9-0.6c-0.5-0.4-0.7-1.1-0.7-2c0-1.2,0.3-2.4,0.9-3.6
		c0.5-0.9,1.1-1.5,2-1.9c0.4-0.2,0.9-0.3,1.3-0.3c0.8,0,1.3,0.1,1.5,0.4c0.3,0.3,0.4,0.7,0.4,1.1c0,0.9-0.4,1.7-1.1,2.4
		c-0.7,0.6-1.6,1-2.6,1.1c0,0.3,0,0.5,0,0.6c0,0.6,0.1,0.9,0.3,1.1c0.2,0.2,0.5,0.3,0.8,0.3c0.6,0,1.2-0.1,1.6-0.4
		c0.4-0.3,0.9-0.7,1.4-1.2H270.3z M268.2,486.7c0-0.4-0.1-0.6-0.4-0.6c-0.4,0-0.8,0.4-1.2,1.1c-0.4,0.7-0.6,1.5-0.8,2.3
		c0.6,0,1.2-0.3,1.6-0.9C268,488,268.2,487.4,268.2,486.7z"/>
	<g>
		<path d="M294.5,494.1l1.9-8.8H295l0.2-0.6c0.5,0,1,0,1.3-0.1c0.8-0.2,1.5-0.5,2.2-1l-2.2,10.5H294.5z"/>
		<path d="M302.9,488.1c0.2,0.2,0.3,0.5,0.3,0.7c0,0.4-0.2,0.7-0.6,0.9c-0.4,0.3-0.8,0.4-1.4,0.4c-0.6,0-1-0.2-1.4-0.7
			c-0.3-0.5-0.5-1.1-0.5-1.7c0-1.2,0.4-2.1,1.1-2.9c0.7-0.8,1.6-1.2,2.6-1.2c1.8,0,2.7,1.1,2.7,3.3c0,1.4-0.2,2.7-0.6,3.8
			c-0.4,1.1-0.9,2-1.7,2.6c-0.7,0.6-1.6,0.9-2.5,0.9c-0.5,0-0.9-0.1-1.2-0.4c-0.3-0.3-0.5-0.6-0.5-0.9c0-0.7,0.4-1,1.2-1
			c-0.1,0.1-0.2,0.3-0.2,0.5c0,0.2,0.1,0.4,0.2,0.5c0.1,0.2,0.3,0.2,0.4,0.2c0.2,0,0.3,0,0.4,0c0.1,0,0.2-0.1,0.4-0.1
			c0.2-0.1,0.4-0.2,0.5-0.3c0.4-0.4,0.8-1,1.1-1.8c0.3-0.8,0.5-2,0.6-3.5c0-0.4,0-0.6,0-0.7c0-0.8-0.1-1.3-0.3-1.6
			c-0.2-0.3-0.5-0.4-1-0.4c-0.4,0-0.8,0.3-1.2,1c-0.4,0.6-0.6,1.3-0.6,2.1c0,0.4,0.1,0.7,0.2,1c0.1,0.3,0.3,0.4,0.6,0.4
			C302.3,488.9,302.7,488.7,302.9,488.1z"/>
		<path d="M309.8,488.1c0.2,0.2,0.3,0.5,0.3,0.7c0,0.4-0.2,0.7-0.6,0.9c-0.4,0.3-0.8,0.4-1.4,0.4c-0.6,0-1-0.2-1.4-0.7
			c-0.3-0.5-0.5-1.1-0.5-1.7c0-1.2,0.4-2.1,1.1-2.9c0.7-0.8,1.6-1.2,2.6-1.2c1.8,0,2.7,1.1,2.7,3.3c0,1.4-0.2,2.7-0.6,3.8
			c-0.4,1.1-0.9,2-1.7,2.6c-0.7,0.6-1.6,0.9-2.5,0.9c-0.5,0-0.9-0.1-1.2-0.4c-0.3-0.3-0.5-0.6-0.5-0.9c0-0.7,0.4-1,1.2-1
			c-0.1,0.1-0.2,0.3-0.2,0.5c0,0.2,0.1,0.4,0.2,0.5c0.1,0.2,0.3,0.2,0.4,0.2c0.2,0,0.3,0,0.4,0c0.1,0,0.2-0.1,0.4-0.1
			c0.2-0.1,0.4-0.2,0.5-0.3c0.4-0.4,0.8-1,1.1-1.8c0.3-0.8,0.5-2,0.6-3.5c0-0.4,0-0.6,0-0.7c0-0.8-0.1-1.3-0.3-1.6
			c-0.2-0.3-0.5-0.4-1-0.4c-0.4,0-0.8,0.3-1.2,1c-0.4,0.6-0.6,1.3-0.6,2.1c0,0.4,0.1,0.7,0.2,1c0.1,0.3,0.3,0.4,0.6,0.4
			C309.2,488.9,309.6,488.7,309.8,488.1z"/>
		<path d="M315.5,494.1l0.8-3.9h-3.4c0.1-0.3,0.2-0.5,0.3-0.8l0.9-1.9c0.6-1.2,0.8-2.3,0.8-3.1c0-0.3,0-0.6-0.1-0.8
			c0.7,0,1.2,0.3,1.4,0.8c0.1,0.2,0.1,0.4,0.1,0.8c0,0.3-0.1,0.7-0.2,1.1c-0.1,0.4-0.3,0.7-0.5,1.1c-0.2,0.3-0.4,0.7-0.7,1
			c-0.2,0.3-0.4,0.7-0.6,1h2.2l1.1-5.4l2.1-0.3l-1.2,5.6h0.9l-0.3,1h-0.8l-0.8,3.9H315.5z"/>
	</g>
	<g>
		<path d="M223.3,467.4h0.8l0.6-0.7v-1l-0.5-0.6h-0.5l-0.5,0.6v0.5h-1v-0.9l1.1-1.2h1.4l1.1,1.2v1.8l-0.6,0.7l0.8,0.8v2.4l-1.2,1.2
			h-1.5l-1.2-1.2v-1.4h1v1.1l0.6,0.7h0.7l0.6-0.7V469l-0.7-0.7h-0.9V467.4z"/>
		<path d="M228.4,464.1h2.8v8h-1v-7.1h-1l-1,7.1h-1.5v-0.9h0.6L228.4,464.1z"/>
		<path d="M233.3,464.1h1.9l1.2,8h-1l-0.3-2.1h-1.7l-0.3,2.1h-1L233.3,464.1z M234.4,465.1h-0.2l-0.6,4h1.4L234.4,465.1z"/>
		<path d="M238.2,465h-1.4v-0.9h3.8v0.9h-1.4v7.1h-1V465z"/>
		<path d="M245.6,470.9l-1.2,1.3h-1.5l-1.2-1.3v-5.7l1.2-1.2h1.5l1.2,1.2V470.9z M244.6,470.5v-4.9l-0.6-0.6h-0.7l-0.6,0.6v4.9
			l0.7,0.7h0.7L244.6,470.5z"/>
		<path d="M248.8,468l0.6-2l0.6-1.8h1l-2.6,8h-1l0.9-2.8l-1.8-5.2h1.1l0.6,1.8L248.8,468L248.8,468z"/>
		<path d="M254.8,465.7l-0.6-0.6h-0.7l-0.6,0.6v4.9l0.6,0.7h0.7l0.6-0.7v-0.9l1,0v1.3l-1.2,1.3h-1.5l-1.2-1.3v-5.6l1.2-1.2h1.5
			l1.2,1.2v1.2h-1V465.7z"/>
		<path d="M258,465h-1.4v-0.9h3.8v0.9H259v7.1h-1V465z"/>
		<path d="M265.3,470.9l-1.2,1.3h-1.5l-1.2-1.3v-5.7l1.2-1.2h1.5l1.2,1.2V470.9z M264.4,470.5v-4.9l-0.6-0.6H263l-0.6,0.6v4.9
			l0.7,0.7h0.7L264.4,470.5z"/>
		<path d="M266.9,464.2h2.4l1.2,1.2v2l-0.6,0.7l0.8,0.8v2.1l-1.2,1.2h-2.6V464.2z M268.9,467.6l0.6-0.7v-1.2l-0.6-0.6h-1v2.5H268.9z
			 M267.9,471.2h1.2l0.6-0.6v-1.3l-0.7-0.7h-1.1V471.2z"/>
		<path d="M275,465.7l-0.6-0.6h-0.7l-0.6,0.6v4.9l0.6,0.7h0.7l0.6-0.7v-0.9l1,0v1.3l-1.2,1.3h-1.5l-1.2-1.3v-5.6l1.2-1.2h1.5
			l1.2,1.2v1.2h-1V465.7z"/>
		<path d="M278.4,467.4h0.5l1.5-3.2h1.1l-1.8,3.7l2,4.3h-1.1l-1.8-3.8h-0.5v3.8h-1v-8h1V467.4z"/>
		<path d="M283.2,464.1h1.9l1.2,8h-1l-0.3-2.1h-1.7l-0.3,2.1h-1L283.2,464.1z M284.3,465.1h-0.2l-0.6,4h1.4L284.3,465.1z"/>
		<path d="M289.9,469.5h-0.8l-1.3,2.7h-1.1l1.4-3.1l-0.9-0.9v-2.8l1.2-1.2h2.4v8h-1V469.5z M289.9,465.1h-1l-0.7,0.7v2l0.7,0.7h1
			V465.1z"/>
		<path d="M293.9,465.1v-0.9h4.3v8h-1v-7.1h-1.8v7.1h-1v-6.8l0.4-0.2v-0.1H293.9z"/>
		<path d="M299.7,472.2v-8h1v2.8l-0.2,3.4h0l0.8-3.3l0.9-2.9h1.3v8h-1v-3.8l0.2-2.9h0l-0.7,2.8l-1.3,3.9H299.7z"/>
		<path d="M305.1,464.2h2.4l1.2,1.2v2l-0.6,0.7l0.8,0.8v2.1l-1.2,1.2h-2.6V464.2z M307.1,467.6l0.6-0.7v-1.2l-0.6-0.6h-1v2.5H307.1z
			 M306.1,471.2h1.2l0.6-0.6v-1.3l-0.7-0.7h-1.1V471.2z"/>
		<path d="M314.3,470.9l-1.2,1.3h-1.5l-1.2-1.3v-5.7l1.2-1.2h1.5l1.2,1.2V470.9z M313.4,470.5v-4.9l-0.6-0.6H312l-0.6,0.6v4.9
			l0.7,0.7h0.7L313.4,470.5z"/>
		<path d="M315.9,464.2h2.4l1.2,1.2v2l-0.6,0.7l0.8,0.8v2.1l-1.2,1.2h-2.6V464.2z M317.9,467.6l0.6-0.7v-1.2l-0.6-0.6h-1v2.5H317.9z
			 M316.9,471.2h1.2l0.6-0.6v-1.3l-0.7-0.7h-1.1V471.2z"/>
		<path d="M321.8,464.1h1.9l1.2,8h-1l-0.3-2.1h-1.7l-0.3,2.1h-1L321.8,464.1z M322.8,465.1h-0.2l-0.6,4h1.4L322.8,465.1z"/>
		<path d="M329.6,465.4v2.9l-1.2,1.3h-1.5v2.6h-1v-8h2.5L329.6,465.4z M328,468.6l0.7-0.7v-2.1l-0.7-0.7h-1.1v3.4H328z"/>
		<path d="M331.1,472.2v-8h1v3.5h1.8v-3.5h1v8h-1v-3.5h-1.8v3.5H331.1z"/>
		<path d="M338.9,469.5h-0.8l-1.3,2.7h-1.1l1.4-3.1l-0.9-0.9v-2.8l1.2-1.2h2.4v8h-1V469.5z M338.9,465.1h-1l-0.7,0.7v2l0.7,0.7h1
			V465.1z"/>
	</g>
</g>
</svg>
