<svg xmlns="http://www.w3.org/2000/svg" viewBox="0 0 25.91 25.91"><defs><style>.cls-1{fill:#3c3e7f;}</style></defs><title>Ресурс 4</title><g id="Слой_2" data-name="Слой 2"><g id="Слой_1-2" data-name="Слой 1"><path class="cls-1" d="M13,0a13,13,0,1,0,13,13A13,13,0,0,0,13,0Zm4.19,14c.42.43.87.84,1.26,1.32a4.21,4.21,0,0,1,.45.68c.17.36,0,.74-.29.76H16.7a1.4,1.4,0,0,1-1.19-.51c-.26-.27-.5-.57-.75-.85a1.6,1.6,0,0,0-.33-.31.39.39,0,0,0-.63.15,2.08,2.08,0,0,0-.19.92c0,.46-.16.58-.6.6a4.59,4.59,0,0,1-2.68-.6,6.16,6.16,0,0,1-1.8-1.76A23.87,23.87,0,0,1,6.16,10q-.23-.53.33-.54c.61,0,1.22,0,1.83,0a.54.54,0,0,1,.51.39,11.94,11.94,0,0,0,1.24,2.41,1.87,1.87,0,0,0,.47.54c.21.16.38.11.48-.15a1.45,1.45,0,0,0,.11-.5,8.06,8.06,0,0,0,0-1.77.73.73,0,0,0-.6-.68c-.18,0-.15-.1-.07-.21a.67.67,0,0,1,.58-.3h2.11c.33.07.41.23.45.58v2.46c0,.13.06.53.29.62s.31-.09.43-.21a8.23,8.23,0,0,0,1.19-1.92c.14-.3.26-.62.38-.93a.45.45,0,0,1,.48-.34h2.22c.34.06.43.22.33.57a5.4,5.4,0,0,1-.81,1.47c-.34.49-.7,1-1,1.46S16.77,13.6,17.15,14Z"/></g></g></svg>